<?xml version="1.0" encoding="UTF-8"?>
<svg id="Layer_2" xmlns="http://www.w3.org/2000/svg" viewBox="0 0 1379.91 562.07">
  <defs>
    <style>
      .cls-1 {
        fill: #231f20;
      }
    </style>
  </defs>
  <g id="Layer_1-2" data-name="Layer_1">
    <g>
      <path class="cls-1" d="M512.06,269.76c-.04-2.27-.12-4.55-.21-6.83-.28-6.35-.78-12.73-1.52-19.14-.14-1.28-.3-2.57-.46-3.84-.91-7.31-2.11-14.5-3.58-21.59-.18-.86-.36-1.72-.55-2.58-1.05-4.93-2.26-9.8-3.58-14.6-.35-1.3-.72-2.57-1.09-3.85-.05-.18-.1-.36-.15-.54-.4-1.36-.81-2.71-1.22-4.06-.1-.32-.21-.63-.3-.95-.45-1.39-.89-2.77-1.35-4.15-3.33-10.06-7.23-19.84-11.65-29.31-.28-.62-.57-1.23-.86-1.84-.03-.05-.05-.12-.08-.17-.33-.73-.68-1.45-1.04-2.18-.18-.39-.37-.77-.55-1.14-.18-.37-.37-.76-.58-1.13-.18-.39-.39-.77-.58-1.14-.04-.08-.08-.17-.12-.24-.4-.81-.81-1.62-1.25-2.43-.09-.21-.19-.4-.31-.59-.33-.68-.69-1.36-1.07-2.03-.08-.17-.17-.32-.26-.48-.13-.24-.26-.49-.39-.72-.08-.17-.15-.32-.26-.48-.45-.83-.9-1.66-1.36-2.48t-.01-.03c-.04-.08-.08-.15-.13-.23-.06-.1-.12-.22-.18-.33-.06-.12-.13-.24-.21-.36-.27-.48-.54-.96-.81-1.44-.03-.05-.05-.09-.06-.13-.12-.21-.23-.41-.36-.62-.57-.98-1.13-1.95-1.7-2.93-.1-.18-.21-.35-.31-.51-.62-1.04-1.25-2.08-1.88-3.12-.09-.15-.19-.31-.28-.48-.62-1-1.23-2-1.86-2.99-.1-.15-.21-.32-.3-.48-.13-.19-.26-.37-.37-.57-.49-.77-.98-1.53-1.46-2.29-.08-.1-.14-.21-.21-.31-.1-.15-.21-.32-.31-.48-.05-.08-.12-.17-.17-.24-.15-.24-.31-.49-.48-.73-.5-.74-1-1.5-1.5-2.25-.04-.06-.09-.13-.13-.19-.4-.58-.78-1.14-1.18-1.71-.41-.6-.82-1.21-1.25-1.81-.04-.06-.09-.13-.13-.19-.26-.36-.51-.72-.77-1.08-.57-.81-1.16-1.62-1.73-2.43-.59-.82-1.19-1.64-1.81-2.47-.62-.82-1.22-1.63-1.84-2.44s-1.25-1.62-1.86-2.43l-1.89-2.39c-.57-.71-1.13-1.41-1.7-2.12-.75-.91-1.49-1.82-2.25-2.72-.63-.74-1.25-1.49-1.88-2.22-.98-1.16-1.97-2.3-2.97-3.43-.06-.08-.13-.14-.19-.22-1.01-1.14-2.03-2.29-3.07-3.42-1.01-1.12-2.06-2.22-3.1-3.33-1.55-1.66-3.13-3.29-4.74-4.89-.53-.54-1.07-1.08-1.61-1.62-.18-.18-.36-.36-.54-.53-.36-.37-.73-.73-1.12-1.09-.53-.53-1.05-1.04-1.59-1.55-.23-.22-.48-.45-.71-.67-.37-.37-.76-.73-1.14-1.08-.48-.46-.96-.92-1.45-1.37-.22-.21-.45-.41-.68-.62-.63-.59-1.27-1.18-1.91-1.75-.46-.44-.94-.86-1.41-1.27-.57-.51-1.13-1.01-1.7-1.52-.64-.55-1.28-1.12-1.93-1.67-.74-.64-1.5-1.28-2.26-1.93-.94-.8-1.89-1.58-2.84-2.36-.91-.76-1.82-1.49-2.75-2.22-.35-.28-.68-.55-1.03-.81-.64-.53-1.28-1.04-1.94-1.53-.74-.58-1.49-1.16-2.25-1.72-.21-.18-.42-.33-.63-.49-.96-.73-1.94-1.46-2.93-2.18-9.23-6.79-18.89-13.02-28.93-18.61-.95-.54-1.9-1.07-2.86-1.58-.37-.22-.73-.41-1.1-.6-1.09-.59-2.2-1.17-3.3-1.75-.21-.12-.41-.22-.6-.31-1.34-.69-2.68-1.37-4.03-2.04-1.22-.62-2.45-1.21-3.7-1.8-.39-.19-.77-.39-1.17-.55-1.3-.63-2.61-1.23-3.93-1.82-1.27-.58-2.54-1.14-3.83-1.7-.35-.15-.69-.31-1.05-.46-1.16-.5-2.32-.99-3.49-1.46-.26-.12-.53-.22-.78-.32-1.21-.5-2.43-.99-3.66-1.46-.28-.13-.58-.24-.87-.35-1.45-.57-2.9-1.12-4.37-1.66-1.34-.5-2.67-.98-4.02-1.45-.23-.09-.46-.17-.68-.24-1.5-.53-3.01-1.04-4.51-1.53h-.01c-.17-.06-.33-.12-.5-.17-1.4-.46-2.8-.9-4.2-1.34-.98-.31-1.95-.6-2.94-.89-1.95-.58-3.89-1.13-5.86-1.67-2.32-.63-4.66-1.23-7.01-1.81-1.04-.24-2.07-.49-3.11-.73-1.1-.26-2.21-.5-3.33-.74-1.1-.24-2.22-.48-3.34-.71s-2.23-.45-3.35-.67c-2.15-.41-4.29-.8-6.46-1.16-13.56-2.26-27.46-3.52-41.63-3.72,20.02,32.98,33.41,70.77,37.94,111.63.59,5.23,1.01,10.39,1.31,15.57,2.95,52.89-9.43,103.45-33.51,147.08-.12.21-.26.46-.37.72-40.5,73.03-113.75,126.59-202.3,138.86-2.39.32-4.82.63-7.23.86-11.53,1.31-22.98,1.85-34.31,1.73,9.74,16.06,21.09,31.03,33.81,44.7.76.8,1.5,1.61,2.26,2.39.71.74,1.43,1.49,2.13,2.22.58.59,1.17,1.18,1.76,1.77,49.68,50.05,118.55,81.06,194.67,81.06h.78c1,0,2-.01,3.01-.03.42,0,.86-.01,1.28-.03,1.13-.03,2.26-.06,3.39-.12,6.04-.18,12.14-.55,18.26-1.14,1.25-.15,2.47-.28,3.71-.4.94-.1,1.88-.22,2.83-.33.94-.12,1.86-.23,2.8-.36.91-.12,1.82-.24,2.74-.37,2.12-.3,4.23-.63,6.32-.98,1.22-.21,2.43-.41,3.63-.63,3.61-.64,7.21-1.37,10.76-2.16,1.19-.26,2.38-.53,3.56-.81.17-.04.33-.08.5-.12,1.01-.24,2.02-.49,3.03-.74,1.17-.28,2.34-.59,3.51-.9,1.17-.31,2.32-.62,3.49-.94,1.1-.31,2.22-.63,3.31-.94,2.36-.69,4.7-1.41,7.04-2.16,1.14-.36,2.29-.73,3.42-1.12.86-.3,1.72-.58,2.58-.89.78-.27,1.57-.54,2.35-.82,3.49-1.25,6.95-2.56,10.38-3.94.83-.33,1.67-.68,2.5-1.03,1.66-.69,3.31-1.4,4.97-2.12.69-.3,1.37-.6,2.07-.91,6.69-3.01,13.24-6.27,19.61-9.76.23-.12.46-.24.69-.37.35-.18.68-.37,1.03-.57.21-.13.41-.24.62-.36.54-.3,1.07-.6,1.61-.9.09-.04.17-.09.26-.14.15-.1.31-.19.46-.28.77-.44,1.54-.89,2.31-1.34.18-.1.37-.21.55-.32.49-.28.98-.58,1.46-.86.04-.03.08-.05.12-.08.06-.04.12-.06.17-.1,1.52-.92,3.03-1.85,4.53-2.8,1.5-.94,3.01-1.9,4.48-2.86,1.1-.73,2.22-1.48,3.31-2.22,1.1-.73,2.2-1.49,3.29-2.25,7.26-5.06,14.26-10.47,20.95-16.18.68-.57,1.35-1.14,2-1.72,2.22-1.93,4.42-3.89,6.56-5.9.9-.82,1.8-1.67,2.68-2.5.3-.28.58-.55.87-.83,1.14-1.1,2.29-2.22,3.42-3.34,1.25-1.23,2.48-2.49,3.7-3.75.91-.94,1.81-1.89,2.7-2.84.68-.71,1.34-1.41,1.99-2.13.85-.91,1.67-1.82,2.49-2.74,1.18-1.31,2.34-2.63,3.48-3.96,2.3-2.66,4.55-5.36,6.73-8.1.04-.04.06-.09.1-.13,1.07-1.32,2.11-2.67,3.15-4.02.99-1.28,1.97-2.58,2.93-3.88.44-.59.87-1.18,1.31-1.79,1.72-2.35,3.39-4.73,5.02-7.14.08-.1.15-.22.23-.33.78-1.14,1.55-2.31,2.32-3.48.21-.31.41-.62.62-.94.87-1.35,1.73-2.71,2.59-4.07.9-1.44,1.79-2.89,2.67-4.35.03-.05.05-.09.08-.14.91-1.5,1.8-3.02,2.67-4.55s1.75-3.07,2.58-4.61c.73-1.32,1.45-2.66,2.16-3.99.19-.36.39-.73.58-1.1.73-1.41,1.46-2.83,2.17-4.26.01-.01.03-.04.04-.06.72-1.44,1.44-2.9,2.13-4.37.18-.37.36-.76.54-1.14.63-1.32,1.25-2.65,1.84-3.98.67-1.45,1.31-2.92,1.95-4.39.09-.23.19-.46.3-.69.66-1.54,1.31-3.1,1.94-4.65.04-.1.09-.21.13-.31.62-1.54,1.23-3.08,1.82-4.64.51-1.32,1-2.65,1.49-3.97.14-.4.3-.81.44-1.21.55-1.53,1.09-3.06,1.62-4.6l.08-.23c.58-1.68,1.13-3.38,1.67-5.07.54-1.7,1.07-3.39,1.57-5.1.51-1.71,1-3.43,1.48-5.15.48-1.72.92-3.44,1.37-5.18.44-1.73.86-3.47,1.27-5.21.4-1.75.8-3.49,1.17-5.25.63-2.93,1.21-5.87,1.72-8.84.33-1.86.66-3.74.95-5.63.17-1.09.33-2.2.49-3.3.12-.72.21-1.44.31-2.16.1-.76.21-1.52.3-2.27.14-1.03.26-2.06.39-3.1.14-1.26.28-2.53.41-3.8.23-2.25.42-4.51.6-6.77.27-3.53.48-7.09.6-10.67.04-1.03.08-2.06.1-3.1.01-.26.01-.53.03-.8.03-1.04.04-2.08.05-3.13.01-1.19.03-2.38.03-3.57,0-1.52-.01-3.02-.04-4.52ZM398.1,256.13c-13.69,48.1-73.17,40.72-73.17,40.72,26.69-31.92,38.24-73.58,32.69-113.95,0,0,54.15,25.23,40.49,73.24Z"/>
      <g>
        <path class="cls-1" d="M820.82,64.08c-.42-6.98-1.6-13.82-4.15-20.33-4.23-10.85-11.27-19.26-21.98-24.31-5.94-2.78-12.36-3.67-18.81-3.81-12.37-.28-24.81-.2-37.24-.06-6.22.06-9.95,3.36-10.99,9.25-.28,1.85-.42,3.79-.42,5.75.06,12.98,0,25.96,0,39.03s.06,25.66,0,38.44c0,2.89.2,5.72.7,8.5.67,4.01,3.03,6.56,6.9,7.68,1.65.48,3.39.81,5.19.81,12.59-.14,25.23.36,37.8-.28,6.22-.34,12.31-1.57,17.97-4.35,11.13-5.52,18.06-14.72,21.84-26.33,3.2-9.76,3.81-19.85,3.2-30ZM796.34,86.77c-1.65,6.34-4.63,12.03-10.01,16.09-4.29,3.25-9.28,4.21-14.52,4.29-6.84.14-13.77.06-20.66.14-1.26,0-1.51-.42-1.51-1.6,0-6.65.06-13.35.06-20.05,0-5.1-.06-10.23-.06-15.34v-35.24c0-1.32.2-1.88,1.65-1.79,5.72.06,11.52,0,17.27.06,4.49.08,8.86.76,13.07,2.16,6.62,2.19,10.71,7.09,13.4,13.26,2.07,4.68,2.78,9.73,3.11,14.78.56,7.88.28,15.62-1.79,23.24Z"/>
        <path class="cls-1" d="M873.15,126.88c-8.26-.04-16.39-.97-23.9-4.66-9.82-4.82-16.42-12.45-19.09-23.17-.98-3.92-.97-7.83,2.05-11.08,4.33-4.67,11.11-4.34,14.97.72,1.51,1.98,2.34,4.29,3.31,6.53,1.34,3.09,2.8,6.13,5.07,8.66,4.06,4.54,9.33,6.26,15.27,6.45,6.95.22,13.45-.86,19.01-5.55,6.24-5.25,7.05-16.13-1.35-21.48-3.91-2.49-8.3-3.66-12.7-4.79-8.52-2.2-17.17-3.99-25.29-7.55-5.52-2.42-10.35-5.72-13.95-10.64-3.97-5.41-5.17-11.57-4.66-18.11,1.09-14,9.56-21.95,22.18-25.96,11.36-3.61,22.99-3.83,34.52-.73,8.02,2.16,14.85,6.34,19.62,13.36,2.42,3.56,3.78,7.48,3.68,11.87-.16,6.93-6.77,11.68-13.36,9.51-1.94-.64-3.24-2.12-4.27-3.77-1.65-2.65-3.15-5.4-4.76-8.09-3.48-5.81-8.68-8.61-15.4-8.82-4.95-.16-9.83.02-14.31,2.41-4.04,2.16-7.14,5.06-7.29,10.11-.09,3.22,1.22,5.73,3.62,7.74,4.01,3.36,8.91,4.71,13.81,6,8.73,2.3,17.6,4.15,26.01,7.57,5.15,2.09,9.99,4.71,13.82,8.87,5.53,6,7.24,13.28,6.87,21.18-.68,14.42-8.33,23.91-21.28,29.47-7.07,3.03-14.56,3.96-22.2,3.94Z"/>
        <path class="cls-1" d="M693.2,113.19c-2.71,3.07-5.23,5.75-8.25,7.92-6.52,4.7-13.84,6.04-21.7,5.46-5.57-.41-10.56-2.24-14.87-5.76-5.07-4.13-7.26-9.77-8.07-16.06-.56-4.3-.64-8.63-.63-12.96.02-11.69,0-23.38.02-35.07,0-2.22.21-4.44.97-6.56,1.45-4.04,4.73-6.3,9.17-6.31,4.65-.01,8.16,2.27,9.62,6.26.68,1.85.85,3.76.84,5.71-.01,10.95-.06,21.9.02,32.85.03,3.86.31,7.72,1.16,11.53,2.19,9.87,10.34,12.38,18.36,9.42,7.81-2.88,11.39-8.88,11.83-17.09.64-11.97.17-23.94.33-35.91.02-1.83.16-3.64.64-5.41,1.37-4.99,5.18-7.63,10.66-7.36,4.53.22,8.1,3.49,8.92,8.23.24,1.4.37,2.81.37,4.25-.02,19.62,0,39.23-.02,58.85,0,3.41-.48,6.77-3.2,9.23-5.41,4.89-13.87,2.21-15.66-4.89-.49-1.95-.35-3.94-.52-6.35Z"/>
        <path class="cls-1" d="M586.21,126.88c-7.93-.05-15.92-.98-23.37-4.56-10.38-4.99-17.11-13.01-19.6-24.33-1.16-5.26.79-9.86,4.72-12,5.6-3.04,11.44-.74,14.35,5.67,1.1,2.43,2.12,4.91,3.3,7.3,3.18,6.45,8.31,10.28,15.52,11.1,6.5.74,12.88.41,18.73-2.93,7.26-4.15,9.63-10.58,7.2-17.57-1.53-4.41-5.28-6.73-9.4-8.37-5.45-2.18-11.21-3.32-16.88-4.75-8.11-2.04-16.21-4.22-23.3-8.91-8.37-5.54-12.48-13.34-12.4-23.49.09-12.15,7.08-21.69,18.5-26.41,9.75-4.02,19.94-4.74,30.35-3.63,6.68.71,12.95,2.61,18.59,6.26,5.96,3.86,10.44,8.91,12.26,16.01,1.5,5.84-.71,11.57-5.48,13.7-3.32,1.48-8.63,1.33-11.41-2.91-1.51-2.3-2.73-4.73-4.12-7.08-2.3-3.88-4.91-7.64-9.42-8.97-8.01-2.37-15.98-2.48-23.32,2.3-2.97,1.93-5.01,4.63-5.25,8.36-.28,4.39,2.05,7.31,5.48,9.55,4.47,2.91,9.61,4.04,14.68,5.33,8.43,2.15,16.93,4.06,24.94,7.56,6.82,2.98,12.85,7.01,16.18,13.98,6.12,12.8,3.49,32.22-12.5,41.85-6.26,3.77-13.05,5.79-20.29,6.53-2.62.27-5.23.36-8.07.41Z"/>
      </g>
      <g>
        <path class="cls-1" d="M669.79,504.83c21.96-9.48,34.81-28.05,34.81-53.46,0-37.93-28.33-61.4-73.49-61.4h-73.23v169.22h39.18v-47.12h35.99l32.59,47.12h42.07l-37.93-54.35ZM628.89,480.84h-31.82v-58.98h31.82c23.99,0,36.07,10.91,36.07,29.5s-12.08,29.47-36.07,29.47Z"/>
        <path class="cls-1" d="M851.57,389.97v66.72h-76.88v-66.72h-39.16v169.22h39.16v-69.34h76.88v69.34h39.07v-169.22h-39.07Z"/>
        <path class="cls-1" d="M930.77,389.97v169.22h39.18v-169.22h-39.18Z"/>
        <path class="cls-1" d="M1126.58,389.97v102.76l-84.11-102.76h-32.39v169.22h38.67v-102.7l84.4,102.7h32.1v-169.22h-38.67Z"/>
        <path class="cls-1" d="M1287.29,387.08c-53.38,0-92.53,37.21-92.53,87.48s39.16,87.51,92.53,87.51,92.62-36.96,92.62-87.51-39.44-87.48-92.62-87.48ZM1287.29,528.71c-30.19,0-52.89-21.96-52.89-54.15s22.71-54.15,52.89-54.15,52.98,22.05,52.98,54.15-22.73,54.15-52.98,54.15Z"/>
      </g>
      <path class="cls-1" d="M15.13,246.39c-5.43,1.62-10.47,2.94-14.82,3.98-1.57-32.22,2.96-63.51,12.74-92.61-3.38,29.28-2.83,59.38,2.08,88.64Z"/>
      <path class="cls-1" d="M20.6,272.01c3.96,15.13,9.17,29.87,15.69,44-9.04,2.89-16.75,4.91-22.25,6.19-5.09-14.6-8.8-29.78-11.19-45.64,5.03-1.08,11.08-2.59,17.75-4.55Z"/>
      <path class="cls-1" d="M125.78,259.17c-18.61,25.16-48.36,41.31-73.63,51.19-7.21-13.67-13.1-28.06-17.68-42.86,18.56-6.67,39.31-16.65,55.44-31.26,10.71,7.87,21.93,15.13,33.66,21.68.71.42,1.46.85,2.22,1.25Z"/>
      <path d="M77.94,378.1c-2.98.85-6.04,1.64-9.15,2.42-6.92,1.79-14.18,3.42-21.85,5.01h-.51c-1.91-2.71-3.76-5.43-5.55-8.22-6.33-9.75-12.01-19.97-16.94-30.61,6.23-1.51,14.06-3.67,22.91-6.58.61-.2,1.22-.41,1.84-.61,8.29,13.77,18.01,26.74,29.24,38.6Z"/>
      <path class="cls-1" d="M200.9,289.17c-25.54,35.69-60.78,64.29-102.11,81.51-6.94-5.87-13.44-12.56-19.48-19.68-4.82-5.74-9.32-11.71-13.52-17.89,28.97-11.88,62.51-31.34,83.6-62.14,14.18,6.38,28.9,11.81,44.08,16.14,2.47.71,4.92,1.37,7.43,2.05Z"/>
      <path d="M69.26,219.71c-12,9.95-27.18,17.24-41.37,22.44-2.81-13.39-4.64-27.01-5.52-40.65-.63-9.7-.78-19.41-.46-29.07.03-1.08.07-2.15.12-3.23,1.13,1.51,2.3,3.01,3.47,4.5,12.25,15.69,25.91,30.21,40.8,43.44.95.86,1.95,1.74,2.96,2.57Z"/>
      <path class="cls-1" d="M125.78,259.17c-18.61,25.16-48.36,41.31-73.63,51.19-7.21-13.67-13.1-28.06-17.68-42.86,18.56-6.67,39.31-16.65,55.44-31.26,10.71,7.87,21.93,15.13,33.66,21.68.71.42,1.46.85,2.22,1.25Z"/>
      <g>
        <path class="cls-1" d="M723.05,237.74v-58.09c0-3.31-.06-6.63.64-9.97,2.38-11.22,8.23-16.6,18.49-16.6s17.72,6.01,20.01,16.6c.58,2.7-.42,7.14,1.64,7.78,2.89.9,4.34-3.38,6.34-5.4,15.31-15.41,33.77-20.78,55.1-18.4,24.77,2.73,39.66,17.66,45.29,37.6,2.32,8.23,2.64,16.79,2.67,25.28.13,27.05.1,54.07,0,81.12,0,5.85-.58,11.74-3.8,16.85-4.79,7.59-13.15,11.1-21.49,9.33-8.84-1.9-15.21-8.65-16.56-17.85-.45-3.12-.64-6.3-.68-9.46-.1-24.7-.13-49.4-.23-74.1-.03-7.37-1.32-14.54-3.8-21.52-2.32-6.56-6.43-11.03-13.19-13.12-21.65-6.72-43.55,7.59-46.51,30.17-3.09,23.61-1.13,47.31-1.7,70.98-.1,4.18.03,8.36-.1,12.51-.45,13.7-8.65,22.64-20.78,22.74-12,.1-20.81-8.84-21.23-22.35-.39-12.83-.1-25.7-.1-38.56v-25.54h-.03Z"/>
        <path class="cls-1" d="M954.92,271.96c3.89-10.42,7.78-20.81,11.61-31.23,8.94-24.22,17.75-48.47,26.89-72.62,4.89-12.96,11.26-16.66,23.03-14.44,10.97,2.06,17.3,12,14.34,22.74-3.34,12.06-8.78,23.38-13.38,34.96-12,30.2-24.28,60.24-36.47,90.35-1.32,3.25-2.8,6.4-4.54,9.46-5.56,9.81-14.15,13.83-25.09,12.87-9.87-.87-16.4-6.66-20.46-15.41-9.13-19.65-16.63-39.98-24.86-59.98-8.81-21.42-17.34-42.94-25.83-64.49-2.93-7.4-5.15-14.99.23-22.39,4.82-6.63,11.42-9.2,19.49-8.72,8.33.48,12.96,5.47,15.6,12.67,7.4,20.17,14.67,40.4,21.94,60.6,5.47,15.18,10.87,30.39,16.27,45.58.39,0,.8,0,1.19.03l.03.03Z"/>
        <path class="cls-1" d="M1147.67,177.02c3.51-4.63,6.21-8.36,9.07-12,7.33-9.26,17.24-12.51,28.69-11.96,10.9.51,20.91,3.6,29.65,10.32,6.3,4.82,8.14,11.22,6.43,18.65-1.77,7.62-7.27,11.87-14.54,13.48-4.31.96-8.46-1.32-12.51-2.67-7.72-2.54-15.66-4.34-23.54-2.12-9.55,2.7-14.25,10.49-16.98,19.49-4.57,15.02-4.95,30.52-5.08,46.06-.1,13.19.03,26.37-.1,39.56-.03,3.99-.39,8.01-1.06,11.93-1.58,9.17-10,16.18-19.43,16.44-10.07.29-18.4-5.89-20.62-15.37-.93-3.89-1.54-7.85-1.51-11.87,0-38.24-.06-76.45.06-114.69,0-6.46.51-12.99,3.51-19.01,3.89-7.82,10.94-11.29,20.39-10.1,8.43,1.06,13.77,5.98,15.66,14.41.61,2.73,1.09,5.47,1.9,9.42v.03Z"/>
        <path class="cls-1" d="M1083.7,238.22v59.53c0,3.7-.45,7.3-1.42,10.87-2.57,9.46-10.2,15.47-19.56,15.53-10.1.06-17.34-5.4-20.13-15.25-1.09-3.86-1.51-7.85-1.51-11.87,0-39.37-.03-78.74.03-118.1,0-8.88,1.32-17.59,9.71-22.77,6.98-4.31,14.54-4.41,21.84-.55,8.2,4.34,10.84,12.03,10.94,20.52.23,20.68.06,41.36.06,62.04l.03.03Z"/>
        <path class="cls-1" d="M686.24,266.98c-3.99,0-7.11.91-9.26,2.75-5.26,4.96-9.56,8.86-12.83,11.74-3.27,2.9-6.87,5.6-10.8,8.11-3.93,2.54-7.96,4.39-12.13,5.57-4.18,1.18-8.77,1.78-13.83,1.78-7.53,0-14.37-1.88-20.63-5.57-6.23-3.72-11.22-9.23-14.98-16.55-3.75-7.32-5.69-15.76-5.78-25.35h82.5v.06c10.98,0,19.54-1.6,25.63-4.75,6.05-3.12,9.11-9.98,9.11-20.6,0-11.44-2.93-22.66-8.83-33.67-5.87-11.04-14.7-20.03-26.5-26.96-11.77-6.96-25.9-10.44-42.39-10.44-12.68,0-24.2,2.06-34.61,6.11-10.38,4.05-19.12,9.95-26.23,17.55-7.11,7.59-12.53,16.76-16.22,27.41-3.69,10.62-5.57,22.21-5.57,34.67,0,26.47,7.59,47.47,22.6,62.9,15.04,15.43,36.09,23.14,63.17,23.14,11.86,0,22.33-1.54,31.43-4.63,9.11-3.12,16.7-6.96,22.72-11.68,5.99-4.66,10.5-9.56,13.49-14.64,3-5.11,4.48-9.56,4.48-13.4,0-4.3-1.36-7.65-4.02-10.01-2.69-2.36-6.17-3.54-10.53-3.54ZM598.29,193.34c6.72-7.26,14.85-10.89,25.87-10.89s19.88,3.57,26.62,10.74c6.75,7.14,10.65,17.94,11.68,32.37h-76.45c1.45-14.19,5.54-24.93,12.28-32.22Z"/>
        <g>
          <g>
            <g>
              <path class="cls-1" d="M1228.4,253.86c-.74-.46-1.5-.9-2.23-1.39,1.2.65,2.1,1.25,2.23,1.39Z"/>
              <path class="cls-1" d="M1330.8,167.33c-12.61-.74-26.85,1.96-42.31,10.59-10.7,5.96-20.58,7.49-30.17,4.63-5.36-1.61-10.24-4.38-14.51-7.68,18.46-25.59,40.08-28.53,36.92-58.51,5.55,5.04,32.07,17.34,50.1,50.97h-.03Z"/>
              <path class="cls-1" d="M1341.28,291.41c-15.36-9.86-30.93-10.16-47.65-.84-18.08,10.1-36.24,12.5-53.97,7.16-3.62-1.09-7.05-2.48-10.29-4.06,13.12,16.53,34.74,29.6,60.58,30.41,22.9,1.2,46.12-9.75,61.18-24.91-2.8-2.64-6.1-5.36-9.86-7.76Z"/>
            </g>
            <path class="cls-1" d="M1362.05,234.5l.04.02c-2.1-7.53-5.72-17.41-10.46-28.69-.21-.15-.44-.27-.64-.44-15.37-9.88-30.93-10.15-47.66-.85-18.08,10.09-36.24,12.48-53.96,7.18-7.18-2.16-13.67-5.45-19.43-9.34-4.7,10.17-7.91,17.85-11.98,34.33-.1,1.12-.15,2.23-.15,3.31,0,32.58,46.68,44.81,74.56,20.82,36.95-31.81,52.92-32.95,69.94-25.21-.08-.4-.15-.75-.25-1.12ZM1228.31,247.07c-.71-.44-1.44-.85-2.14-1.31,1.06.56,1.87,1.1,2.14,1.31Z"/>
          </g>
          <path class="cls-1" d="M1364.92,261.57c-.16,6.34-1.47,11.95-3.19,16.61-5.31-7.65-14.54-11.63-30.93-14.84,18.27-16.53,28.92-7.35,34.12-1.77Z"/>
        </g>
      </g>
      <path class="cls-1" d="M548.12,347.64h812.9c6,0,10.88,4.87,10.88,10.88v5.92h-834.66v-5.92c0-6,4.87-10.88,10.88-10.88Z"/>
      <path class="cls-1" d="M522.98,393.41v163.33h-163.29c.82-.33,1.64-.66,2.5-1.02,1.72-.73,3.45-1.46,5.17-2.21.61-.26,1.22-.53,1.83-.8l.55-.24c7.07-3.18,14.11-6.68,20.9-10.39.27-.15.54-.29.83-.45.35-.2.71-.38,1.06-.59l.67-.37.24-.15c.28-.15,1.2-.66,1.2-.66.41-.23.74-.41.95-.53l.5-.29.16-.11c.65-.37,1.32-.76,1.99-1.14.28-.16.58-.34.86-.51.23-.13,1.76-1.02,1.76-1.02,0,0,.38-.25.41-.27,1.51-.92,3.02-1.85,4.53-2.8,1.61-1.01,3.22-2.03,4.8-3.07l.13-.09c1.15-.76,2.31-1.53,3.44-2.31,1.19-.78,2.36-1.6,3.59-2.46,7.78-5.42,15.35-11.27,22.52-17.38.78-.65,1.54-1.32,2.3-1.98,2.47-2.13,4.83-4.25,7.01-6.29.95-.86,1.88-1.74,2.84-2.64l1.07-1.02c1.21-1.16,2.4-2.34,3.6-3.52,1.35-1.34,2.69-2.7,3.99-4.05.98-1,1.95-2.02,2.89-3.03.76-.79,1.49-1.58,2.21-2.37.9-.97,1.77-1.93,2.63-2.88,1.28-1.43,2.55-2.86,3.79-4.3,2.5-2.89,4.9-5.78,7.11-8.56.1-.13.21-.26.3-.39,1.11-1.37,2.2-2.77,3.34-4.25,1.06-1.38,2.11-2.77,3.14-4.18l.1-.13c.45-.6.89-1.21,1.34-1.83,1.78-2.44,3.57-4.97,5.31-7.54.12-.16.24-.34.36-.51.84-1.23,1.65-2.47,2.44-3.65.26-.39.52-.78.78-1.2.9-1.38,1.78-2.78,2.67-4.18l.09-.14c.96-1.52,1.89-3.07,2.84-4.62l.42-.71.04-.09c.82-1.36,1.65-2.8,2.56-4.36.94-1.64,1.87-3.3,2.77-4.95.77-1.4,1.53-2.82,2.28-4.23.22-.41.45-.85.69-1.32.25-.47.49-.95.73-1.41l.05-.04,1.57-3.14c.77-1.54,1.54-3.12,2.3-4.71.2-.39.38-.79.59-1.23.67-1.44,1.35-2.87,1.99-4.32.71-1.54,1.39-3.1,2.07-4.67l.16-.37.07-.15.14-.34c.69-1.61,1.37-3.24,2.03-4.86.04-.1.09-.2.12-.29Z"/>
    </g>
  </g>
</svg>