<?xml version="1.0" encoding="UTF-8"?>
<svg id="Layer_2" xmlns="http://www.w3.org/2000/svg" viewBox="0 0 372.52 590.13">
  <defs>
    <style>
      .cls-1 {
        fill: #231f20;
      }
    </style>
  </defs>
  <g id="Layer_1-2" data-name="Layer_1">
    <g>
      <path class="cls-1" d="M371.24,177.36C359.95,76.25,274.93,1.27,175.76,0c14.56,23.99,24.31,51.49,27.61,81.22.43,3.8.74,7.56.95,11.32,2.15,38.48-6.86,75.25-24.37,107-.09.15-.18.33-.27.52-29.46,53.13-82.75,92.09-147.16,101.01-1.74.23-3.5.46-5.26.63-8.41.95-16.74,1.34-25,1.26,8.26,13.59,18.02,26.04,29.1,37.16,3.43.73,6.61,2.01,9.38,3.79,3.73,2.44,6.49,5.47,8.19,9.05.89-.18,1.82-.27,2.77-.27,4.76,0,8.97,2.09,11.62,5.64,2.63-3.55,6.76-5.64,11.56-5.64.27,0,.54,0,.81.02h.39c0-.06.04-.12.04-.18,1.3-7.37,7-12.16,14.48-12.29,2.67-.02,5.4-.02,8.08-.02,2.88,0,5.72,0,8.62.06,4.7.09,8.7.96,12.25,2.61,2.83,1.33,5.38,3.05,7.56,5.16,2.79-3.13,6.56-5.53,11.29-7.02,3.62-1.16,7.35-1.76,11.1-1.76,3.23,0,6.46.46,9.65,1.3,6.04,1.64,10.96,5.03,14.23,9.9,2.31,3.36,3.43,7.07,3.37,11.04-.09,2.98-1.03,5.74-2.61,7.98,3.37,4.22,4.95,9.38,4.68,15.36-.31,5.51-2.07,10.34-5.26,14.23,1.86,0,3.73-.04,5.59-.12,4.39-.12,8.83-.39,13.28-.82.91-.11,1.8-.21,2.71-.3,97.55-10.93,170.77-90.43,176.96-185.04.27-4.25.43-8.56.43-12.86v-.39c0-7.31-.43-14.72-1.28-22.18ZM289.59,186.33c-9.96,35-53.23,29.62-53.23,29.62,19.41-23.22,27.82-53.52,23.78-82.89,0,0,39.39,18.35,29.44,53.28Z"/>
      <g>
        <path class="cls-1" d="M126.79,371.5c-.18-3.07-.7-6.07-1.82-8.92-1.86-4.76-4.95-8.46-9.65-10.67-2.61-1.22-5.43-1.61-8.26-1.67-5.43-.12-10.89-.09-16.35-.02-2.73.02-4.37,1.48-4.83,4.06-.12.81-.18,1.66-.18,2.52.02,5.7,0,11.4,0,17.14s.02,11.26,0,16.88c0,1.27.09,2.51.31,3.73.3,1.76,1.33,2.88,3.03,3.37.73.21,1.49.36,2.28.36,5.53-.06,11.08.16,16.59-.12,2.73-.15,5.4-.69,7.89-1.91,4.89-2.43,7.93-6.46,9.59-11.56,1.4-4.28,1.67-8.72,1.4-13.17ZM116.04,381.45c-.73,2.78-2.03,5.28-4.39,7.07-1.88,1.43-4.07,1.85-6.38,1.88-3,.06-6.04.02-9.07.06-.55,0-.66-.18-.66-.7,0-2.92.02-5.86.02-8.8,0-2.24-.02-4.49-.02-6.73v-15.47c0-.58.09-.82.73-.79,2.51.02,5.06,0,7.58.02,1.97.04,3.89.33,5.74.95,2.91.96,4.7,3.11,5.88,5.82.91,2.06,1.22,4.27,1.37,6.49.25,3.46.12,6.86-.79,10.2Z"/>
        <path class="cls-1" d="M149.77,399.07c-3.63-.02-7.19-.43-10.49-2.05-4.31-2.12-7.21-5.47-8.38-10.17-.43-1.72-.42-3.44.9-4.87,1.9-2.05,4.88-1.9,6.57.32.66.87,1.03,1.88,1.45,2.87.59,1.36,1.23,2.69,2.22,3.8,1.78,1.99,4.09,2.75,6.7,2.83,3.05.1,5.9-.38,8.35-2.43,2.74-2.31,3.09-7.08-.59-9.43-1.72-1.09-3.64-1.61-5.57-2.1-3.74-.97-7.54-1.75-11.1-3.31-2.43-1.06-4.54-2.51-6.13-4.67-1.74-2.38-2.27-5.08-2.05-7.95.48-6.15,4.2-9.64,9.74-11.4,4.99-1.58,10.09-1.68,15.16-.32,3.52.95,6.52,2.79,8.61,5.87,1.06,1.56,1.66,3.29,1.62,5.21-.07,3.04-2.97,5.13-5.86,4.18-.85-.28-1.42-.93-1.87-1.65-.73-1.16-1.38-2.37-2.09-3.55-1.53-2.55-3.81-3.78-6.76-3.87-2.17-.07-4.32,0-6.28,1.06-1.78.95-3.14,2.22-3.2,4.44-.04,1.41.54,2.51,1.59,3.4,1.76,1.48,3.91,2.07,6.06,2.63,3.83,1.01,7.73,1.82,11.42,3.32,2.26.92,4.39,2.07,6.07,3.89,2.43,2.64,3.18,5.83,3.02,9.3-.3,6.33-3.66,10.5-9.34,12.94-3.1,1.33-6.39,1.74-9.75,1.73Z"/>
        <path class="cls-1" d="M70.76,393.05c-1.19,1.35-2.3,2.52-3.62,3.48-2.86,2.06-6.08,2.65-9.53,2.4-2.45-.18-4.63-.98-6.53-2.53-2.22-1.81-3.19-4.29-3.54-7.05-.24-1.89-.28-3.79-.28-5.69,0-5.13,0-10.26,0-15.4,0-.98.09-1.95.43-2.88.64-1.77,2.08-2.76,4.03-2.77,2.04,0,3.58,1,4.22,2.75.3.81.37,1.65.37,2.51,0,4.81-.03,9.61.01,14.42.01,1.7.14,3.39.51,5.06.96,4.33,4.54,5.43,8.06,4.14,3.43-1.26,5-3.9,5.19-7.5.28-5.25.08-10.51.15-15.76.01-.8.07-1.6.28-2.37.6-2.19,2.28-3.35,4.68-3.23,1.99.1,3.56,1.53,3.92,3.61.11.62.16,1.24.16,1.87,0,8.61,0,17.22-.01,25.84,0,1.5-.21,2.97-1.41,4.05-2.38,2.15-6.09.97-6.87-2.15-.21-.85-.15-1.73-.23-2.79Z"/>
        <path class="cls-1" d="M23.79,399.07c-3.48-.02-6.99-.43-10.26-2-4.56-2.19-7.51-5.71-8.61-10.68-.51-2.31.34-4.33,2.07-5.27,2.46-1.34,5.02-.32,6.3,2.49.48,1.07.93,2.15,1.45,3.2,1.4,2.83,3.65,4.51,6.81,4.87,2.85.33,5.65.18,8.23-1.29,3.19-1.82,4.23-4.64,3.16-7.71-.67-1.94-2.32-2.95-4.12-3.68-2.39-.96-4.92-1.46-7.41-2.09-3.56-.9-7.12-1.85-10.23-3.91-3.68-2.43-5.48-5.86-5.44-10.31.04-5.33,3.11-9.52,8.12-11.59,4.28-1.77,8.75-2.08,13.32-1.59,2.93.31,5.68,1.15,8.16,2.75,2.62,1.69,4.58,3.91,5.38,7.03.66,2.56-.31,5.08-2.4,6.01-1.46.65-3.79.58-5.01-1.28-.66-1.01-1.2-2.08-1.81-3.11-1.01-1.7-2.15-3.35-4.14-3.94-3.52-1.04-7.02-1.09-10.24,1.01-1.3.85-2.2,2.03-2.31,3.67-.12,1.93.9,3.21,2.41,4.19,1.96,1.28,4.22,1.77,6.44,2.34,3.7.94,7.43,1.78,10.95,3.32,3,1.31,5.64,3.08,7.11,6.14,2.69,5.62,1.53,14.15-5.49,18.37-2.75,1.65-5.73,2.54-8.91,2.87-1.15.12-2.29.16-3.54.18Z"/>
      </g>
      <g>
        <path class="cls-1" d="M59.08,565.46c9.47-4.09,15.01-12.09,15.01-23.04,0-16.35-12.21-26.47-31.67-26.47H10.85v72.94h16.89v-20.31h15.51l14.05,20.31h18.13l-16.35-23.43ZM41.45,555.12h-13.71v-25.42h13.71c10.34,0,15.55,4.7,15.55,12.72s-5.21,12.7-15.55,12.7Z"/>
        <path class="cls-1" d="M137.43,515.95v28.76h-33.14v-28.76h-16.88v72.94h16.88v-29.89h33.14v29.89h16.84v-72.94h-16.84Z"/>
        <path class="cls-1" d="M171.56,515.95v72.94h16.89v-72.94h-16.89Z"/>
        <path class="cls-1" d="M255.96,515.95v44.29l-36.25-44.29h-13.96v72.94h16.67v-44.27l36.38,44.27h13.84v-72.94h-16.67Z"/>
        <path class="cls-1" d="M325.22,514.7c-23.01,0-39.88,16.04-39.88,37.7s16.88,37.72,39.88,37.72,39.92-15.93,39.92-37.72-17-37.7-39.92-37.7ZM325.22,575.75c-13.01,0-22.8-9.47-22.8-23.34s9.79-23.34,22.8-23.34,22.83,9.5,22.83,23.34-9.8,23.34-22.83,23.34Z"/>
      </g>
      <path class="cls-1" d="M11.01,179.25c-3.95,1.18-7.62,2.14-10.78,2.89-1.14-23.44,2.15-46.2,9.27-67.37-2.46,21.3-2.06,43.19,1.51,64.48Z"/>
      <path class="cls-1" d="M14.98,197.89c2.88,11,6.67,21.73,11.41,32.01-6.57,2.1-12.19,3.57-16.19,4.51-3.71-10.62-6.4-21.67-8.14-33.2,3.66-.79,8.06-1.88,12.91-3.31Z"/>
      <path class="cls-1" d="M91.5,188.55c-13.54,18.3-35.18,30.05-53.56,37.24-5.24-9.95-9.53-20.41-12.86-31.18,13.5-4.85,28.6-12.11,40.33-22.74,7.79,5.72,15.95,11,24.48,15.77.52.31,1.06.62,1.61.91Z"/>
      <path d="M56.7,275.06c-2.17.62-4.39,1.19-6.66,1.76-5.03,1.3-10.32,2.49-15.89,3.64h-.37c-1.39-1.97-2.73-3.95-4.04-5.98-4.6-7.09-8.74-14.53-12.32-22.27,4.53-1.1,10.23-2.67,16.67-4.79.44-.15.89-.3,1.34-.44,6.03,10.02,13.1,19.45,21.27,28.08Z"/>
      <path class="cls-1" d="M146.14,210.37c-18.58,25.96-44.22,46.76-74.28,59.3-5.05-4.27-9.77-9.13-14.17-14.32-3.51-4.17-6.78-8.52-9.84-13.01,21.07-8.64,45.47-22.8,60.81-45.2,10.32,4.64,21.03,8.59,32.07,11.74,1.8.52,3.58,1,5.4,1.49Z"/>
      <path d="M50.38,159.84c-8.73,7.24-19.77,12.54-30.1,16.32-2.04-9.74-3.37-19.65-4.01-29.57-.46-7.05-.57-14.12-.33-21.15.02-.79.05-1.56.09-2.35.82,1.1,1.67,2.19,2.52,3.27,8.91,11.41,18.85,21.97,29.68,31.6.69.63,1.42,1.27,2.15,1.87Z"/>
      <path class="cls-1" d="M91.5,188.55c-13.54,18.3-35.18,30.05-53.56,37.24-5.24-9.95-9.53-20.41-12.86-31.18,13.5-4.85,28.6-12.11,40.33-22.74,7.79,5.72,15.95,11,24.48,15.77.52.31,1.06.62,1.61.91Z"/>
      <path class="cls-1" d="M146.14,210.37c-18.58,25.96-44.22,46.76-74.28,59.3-5.05-4.27-9.77-9.13-14.17-14.32-3.51-4.17-6.78-8.52-9.84-13.01,21.07-8.64,45.47-22.8,60.81-45.2,10.32,4.64,21.03,8.59,32.07,11.74,1.8.52,3.58,1,5.4,1.49Z"/>
      <g>
        <path class="cls-1" d="M83.87,447.74v-25.5c0-1.45-.03-2.91.28-4.38,1.04-4.93,3.61-7.29,8.12-7.29s7.78,2.64,8.78,7.29c.25,1.19-.18,3.13.72,3.42,1.27.4,1.91-1.48,2.78-2.37,6.72-6.76,14.83-9.12,24.19-8.08,10.87,1.2,17.41,7.75,19.88,16.51,1.02,3.61,1.16,7.37,1.17,11.1.06,11.88.04,23.74,0,35.61,0,2.57-.25,5.15-1.67,7.4-2.1,3.33-5.78,4.87-9.43,4.09-3.88-.83-6.68-3.8-7.27-7.84-.2-1.37-.28-2.77-.3-4.15-.04-10.84-.06-21.69-.1-32.53-.01-3.23-.58-6.38-1.67-9.45-1.02-2.88-2.82-4.84-5.79-5.76-9.5-2.95-19.12,3.33-20.42,13.25-1.36,10.36-.49,20.77-.75,31.16-.04,1.84.01,3.67-.04,5.49-.2,6.02-3.8,9.94-9.12,9.98-5.27.04-9.14-3.88-9.32-9.81-.17-5.63-.04-11.28-.04-16.93v-11.21h-.01Z"/>
        <path class="cls-1" d="M185.66,462.76c1.71-4.58,3.42-9.14,5.1-13.71,3.93-10.63,7.79-21.28,11.8-31.88,2.15-5.69,4.94-7.31,10.11-6.34,4.82.9,7.6,5.27,6.3,9.98-1.47,5.3-3.85,10.27-5.87,15.35-5.27,13.26-10.66,26.45-16.01,39.66-.58,1.43-1.23,2.81-1.99,4.15-2.44,4.31-6.21,6.07-11.01,5.65-4.34-.38-7.2-2.92-8.98-6.76-4.01-8.63-7.3-17.55-10.92-26.33-3.87-9.4-7.61-18.85-11.34-28.31-1.28-3.25-2.26-6.58.1-9.83,2.12-2.91,5.01-4.04,8.56-3.83,3.66.21,5.69,2.4,6.85,5.56,3.25,8.85,6.44,17.74,9.63,26.6,2.4,6.66,4.77,13.34,7.15,20.01.17,0,.35,0,.52.01h.01Z"/>
        <path class="cls-1" d="M270.29,421.08c1.54-2.03,2.73-3.67,3.98-5.27,3.22-4.07,7.57-5.49,12.6-5.25,4.79.23,9.18,1.58,13.02,4.53,2.77,2.12,3.57,4.93,2.82,8.19-.78,3.35-3.19,5.21-6.38,5.92-1.89.42-3.71-.58-5.49-1.17-3.39-1.12-6.88-1.91-10.34-.93-4.19,1.19-6.26,4.6-7.46,8.56-2.01,6.59-2.17,13.4-2.23,20.22-.04,5.79.01,11.58-.04,17.37-.01,1.75-.17,3.52-.47,5.24-.69,4.02-4.39,7.1-8.53,7.22-4.42.13-8.08-2.58-9.05-6.75-.41-1.71-.68-3.45-.66-5.21,0-16.79-.03-33.56.03-50.35,0-2.84.23-5.7,1.54-8.35,1.71-3.43,4.8-4.96,8.95-4.43,3.7.47,6.04,2.63,6.88,6.33.27,1.2.48,2.4.83,4.14h0Z"/>
        <path class="cls-1" d="M242.2,447.95v26.14c0,1.62-.2,3.21-.62,4.77-1.13,4.15-4.48,6.79-8.59,6.82-4.43.03-7.61-2.37-8.84-6.69-.48-1.69-.66-3.45-.66-5.21,0-17.28-.01-34.57.01-51.85,0-3.9.58-7.72,4.26-10,3.06-1.89,6.38-1.93,9.59-.24,3.6,1.91,4.76,5.28,4.8,9.01.1,9.08.03,18.16.03,27.24h.01Z"/>
        <path class="cls-1" d="M67.71,460.57c-1.75,0-3.12.4-4.06,1.21-2.31,2.18-4.2,3.89-5.63,5.15-1.43,1.28-3.02,2.46-4.74,3.56-1.73,1.12-3.49,1.93-5.33,2.44-1.83.52-3.85.78-6.07.78-3.31,0-6.31-.82-9.06-2.44-2.74-1.63-4.93-4.05-6.57-7.27-1.65-3.21-2.5-6.92-2.54-11.13h36.22v.03c4.82,0,8.58-.7,11.25-2.09,2.66-1.37,4-4.38,4-9.05,0-5.02-1.29-9.95-3.88-14.78-2.58-4.85-6.46-8.79-11.64-11.83-5.17-3.06-11.37-4.58-18.61-4.58-5.57,0-10.63.9-15.2,2.68-4.56,1.78-8.39,4.37-11.52,7.7-3.12,3.33-5.5,7.36-7.12,12.03-1.62,4.66-2.44,9.75-2.44,15.22,0,11.62,3.33,20.84,9.92,27.61,6.6,6.77,15.85,10.16,27.73,10.16,5.21,0,9.8-.68,13.8-2.03,4-1.37,7.33-3.05,9.98-5.13,2.63-2.05,4.61-4.2,5.92-6.43,1.31-2.24,1.97-4.2,1.97-5.88,0-1.89-.6-3.36-1.77-4.4-1.18-1.04-2.71-1.55-4.62-1.55ZM29.1,428.24c2.95-3.19,6.52-4.78,11.36-4.78s8.73,1.57,11.69,4.72c2.96,3.13,4.68,7.88,5.13,14.21H23.7c.64-6.23,2.43-10.94,5.39-14.15Z"/>
        <g>
          <g>
            <g>
              <path class="cls-1" d="M305.73,454.81c-.32-.2-.66-.39-.98-.61.53.29.92.55.98.61Z"/>
              <path class="cls-1" d="M350.69,416.83c-5.53-.32-11.79.86-18.58,4.65-4.7,2.62-9.04,3.29-13.24,2.03-2.35-.71-4.49-1.92-6.37-3.37,8.1-11.24,17.6-12.53,16.21-25.69,2.44,2.21,14.08,7.61,21.99,22.38h-.01Z"/>
              <path class="cls-1" d="M355.29,471.3c-6.74-4.33-13.58-4.46-20.92-.37-7.94,4.43-15.91,5.49-23.69,3.14-1.59-.48-3.1-1.09-4.52-1.78,5.76,7.26,15.25,12.99,26.6,13.35,10.05.53,20.25-4.28,26.86-10.94-1.23-1.16-2.68-2.35-4.33-3.41Z"/>
            </g>
            <path class="cls-1" d="M364.41,446.31h.02c-.92-3.3-2.51-7.64-4.59-12.59-.09-.06-.19-.12-.28-.19-6.75-4.34-13.58-4.46-20.92-.37-7.94,4.43-15.91,5.48-23.69,3.15-3.15-.95-6-2.39-8.53-4.1-2.06,4.47-3.47,7.84-5.26,15.07-.05.49-.06.98-.06,1.45,0,14.3,20.49,19.67,32.73,9.14,16.22-13.96,23.23-14.47,30.71-11.07-.04-.17-.06-.33-.11-.49ZM305.69,451.83c-.31-.19-.63-.37-.94-.58.47.25.82.48.94.58Z"/>
          </g>
          <path class="cls-1" d="M365.67,458.2c-.07,2.79-.65,5.25-1.4,7.29-2.33-3.36-6.38-5.1-13.58-6.51,8.02-7.26,12.69-3.23,14.98-.78Z"/>
        </g>
      </g>
      <path class="cls-1" d="M10.33,495.27h355.34c3.06,0,5.55,2.49,5.55,5.55v4.41H4.78v-4.41c0-3.06,2.49-5.55,5.55-5.55Z"/>
    </g>
  </g>
</svg>