<svg xmlns="http://www.w3.org/2000/svg" xmlns:xlink="http://www.w3.org/1999/xlink" xmlns:inkscape="http://www.inkscape.org/namespaces/inkscape" version="1.1" viewBox="0 0 1063.95 581.56">
<defs>
<clipPath id="clip_1">
<path transform="matrix(1,0,0,-1,-72.99,795.67)" d="M72.99 214.12H1136.95V795.68H72.99Z"/>
</clipPath>
<clipPath id="clip_2">
<path transform="matrix(1,0,0,-1,-72.99,795.67)" d="M0 0H2448V1584H0Z"/>
</clipPath>
<clipPath id="clip_3">
<path transform="matrix(1,0,0,-1,-72.99,795.67)" d="M0 0V2376H3672V0H0"/>
</clipPath>
<clipPath id="clip_4">
<path transform="matrix(1,0,0,-1,-72.99,795.67)" d="M0 0V2376H3672V0H0"/>
</clipPath>
<clipPath id="clip_5">
<path transform="matrix(1,0,0,-1,-72.99,795.67)" d="M0 0V2376H3672V0H0"/>
</clipPath>
<clipPath id="clip_6">
<path transform="matrix(1,0,0,-1,-72.99,795.67)" d="M0 0V2376H3672V0H0"/>
</clipPath>
<clipPath id="clip_7">
<path transform="matrix(1,0,0,-1,-72.99,795.67)" d="M0 0V2376H3672V0H0"/>
</clipPath>
<clipPath id="clip_8">
<path transform="matrix(1,0,0,-1,-72.99,795.67)" d="M0 0V2376H3672V0H0"/>
</clipPath>
<path id="font_9_1086" d="M.037002565 0V.067993167L.32200624 .34300233C.34733583 .3669993 .36616517 .38816325 .37849427 .40649415 .39083354 .4248352 .39916993 .4418386 .40350343 .45750428 .4078369 .47316996 .41000367 .4883372 .41000367 .503006 .41000367 .53900656 .39733378 .56733706 .37199403 .58799746 .34666444 .608668 .30966697 .6190033 .2610016 .6190033 .22366841 .6190033 .19000244 .6128337 .16000366 .6004944 .13000489 .5881653 .104003909 .56900027 .08200073 .54299929L.014007568 .602005C.040669759 .6360016 .0764974 .66216537 .12149048 .6804962 .16649373 .6988271 .21599834 .70799258 .27000428 .70799258 .31866966 .70799258 .3610026 .7001597 .39700318 .684494 .43300376 .6688283 .46083579 .6463267 .48049928 .61698916 .5001628 .58766177 .5099945 .55299887 .5099945 .5130005 .5099945 .4903361 .5069936 .46800233 .5009918 .44599916 .4950002 .42399598 .483668 .4006602 .46699525 .37599183 .45033265 .35133363 .42633567 .32366944 .39500428 .29299928L.14100647 .04800415 .117004398 .087005618H.5399933V0H.037002565Z"/>
<path id="font_9_1085" d="M.16600037 0V.66000369L.20899964 .6130066H.0079956059V.69999697H.2649994V0H.16600037Z"/>
<path id="font_9_1087" d="M.2619934-.0079956059C.21266683-.0079956059 .16483562-.0003306071 .118499759 .01499939 .0721639 .030329386 .034332277 .050994874 .005004883 .07699585L.050994874 .15600586C.07433065 .13400269 .10466512 .115997318 .14199829 .101989749 .17933147 .08799235 .21932984 .08099365 .2619934 .08099365 .31399537 .08099365 .35449729 .092158 .38349916 .114486698 .412501 .13682556 .42700196 .16699727 .42700196 .20500183 .42700196 .24166362 .41316734 .27115885 .38549806 .29348756 .35782878 .31582643 .31399537 .32699586 .2539978 .32699586H.19799805V.39700318L.40600587 .6529999 .41999818 .6130066H.037002565V.69999697H.49899293V.6320038L.29200746 .3769989 .2400055 .40800477H.272995C.35766093 .40800477 .42115785 .38900248 .46348573 .35099793 .5058238 .31300355 .5269928 .2646688 .5269928 .20599365 .5269928 .16666667 .5173238 .13066609 .49798585 .09799194 .47865806 .065327968 .4494934 .03949483 .41049195 .020492554 .37150065 .0015004476 .32200114-.0079956059 .2619934-.0079956059Z"/>
<path id="font_9_1089" d="M.27400209-.0079956059C.22466533-.0079956059 .17682903-.0003306071 .13049317 .01499939 .08416748 .030329386 .046335859 .050994874 .016998291 .07699585L.06300354 .15600586C.08633932 .13400269 .11667379 .115997318 .15400696 .101989749 .19134014 .08799235 .23100281 .08099365 .272995 .08099365 .32632957 .08099365 .36732994 .092325847 .3959961 .114990238 .42466227 .1376648 .43899537 .16799927 .43899537 .20599365 .43899537 .23199463 .43266297 .25465904 .41999818 .27398683 .40733338 .2933248 .38549806 .3081614 .3544922 .3184967 .3234965 .328832 .28100077 .33399964 .227005 .33399964H.067993167L.10499573 .69999697H.5V.6130066H.14199829L.19400025 .66200259 .16499329 .3730011 .11300659 .42100526H.2480011C.31799827 .42100526 .3743286 .41200257 .4169922 .3939972 .45966593 .37600199 .49066673 .35117088 .5099945 .31950379 .52933248 .2878367 .53900149 .25133769 .53900149 .21000672 .53900149 .16999817 .52933248 .13349407 .5099945 .100494388 .49066673 .06749471 .46150209 .041163129 .4225006 .021499634 .38349916 .001836141 .33399964-.0079956059 .27400209-.0079956059Z"/>
<path id="font_9_246" d="M.10499573 0V.69999697H.37800599C.43933616 .69999697 .4916687 .69032797 .53500369 .67099 .5783386 .6516622 .6116689 .6236623 .6349945 .58699038 .65833029 .55032858 .66999819 .506663 .66999819 .45599366 .66999819 .40533448 .65833029 .36183677 .6349945 .3255005 .6116689 .28916423 .5783386 .26116435 .53500369 .24150086 .4916687 .22183736 .43933616 .21200562 .37800599 .21200562H.16000366L.20500183 .2590027V0H.10499573M.20500183 .24899292 .16000366 .29899598H.375C.43899537 .29899598 .4874929 .31266276 .52049258 .33999635 .5535024 .36732994 .5700073 .4059957 .5700073 .45599366 .5700073 .5060018 .5535024 .54467269 .52049258 .5720062 .4874929 .5993398 .43899537 .6130066 .375 .6130066H.16000366L.20500183 .6629944V.24899292Z"/>
<path id="font_9_292" d="M.39500428-.0079956059C.30300395-.0079956059 .23066712 .018335978 .17799378 .070999149 .12533061 .123662319 .09899902 .20066326 .09899902 .30200196V.69999697H.19900513V.30599977C.19900513 .22799683 .21617127 .17099507 .25050355 .1349945 .28483583 .098993938 .33333335 .08099365 .3959961 .08099365 .45933024 .08099365 .50816348 .098993938 .5424957 .1349945 .576828 .17099507 .59399417 .22799683 .59399417 .30599977V.69999697H.69099429V.30200196C.69099429 .20066326 .66482546 .123662319 .6124878 .070999149 .56016036 .018335978 .4876658-.0079956059 .39500428-.0079956059Z"/>
<path id="font_9_183" d="M.10499573 0V.69999697H.18699646L.5010071 .17100525H.45700074L.7669983 .69999697H.848999L.8500061 0H.7539978L.753006 .548996H.776001L.5 .085006717H.45399476L.17599488 .548996H.20100403V0H.10499573Z"/>
<path id="font_9_72" d="M.10499573 0V.69999697H.598999V.6130066H.20500183V.087005618H.6130066V0H.10499573M.19599915 .31300355V.397995H.55599978V.31300355H.19599915Z"/>
<path id="font_9_56" d="M.10499573 0V.69999697H.3999939C.47466026 .69999697 .54049178 .6853282 .5974884 .6559906 .65449526 .6266632 .6988322 .58566287 .73049929 .5329895 .7621663 .48032633 .7779999 .41933189 .7779999 .3500061 .7779999 .28067018 .7621663 .21966553 .73049929 .16699219 .6988322 .11432902 .65449526 .07332865 .5974884 .04399109 .54049178 .014663696 .47466026 0 .3999939 0H.10499573M.20500183 .087005618H.3939972C.45200096 .087005618 .50216677 .09800211 .5444946 .11999512 .5868327 .14199829 .6196645 .17283122 .6429901 .2124939 .66632589 .25216676 .6779938 .29800416 .6779938 .3500061 .6779938 .40266929 .66632589 .44866435 .6429901 .48799134 .6196645 .5273285 .5868327 .55799868 .5444946 .58000186 .50216677 .602005 .45200096 .6130066 .3939972 .6130066H.20500183V.087005618Z"/>
<path id="font_9_1154" d=""/>
<path id="font_9_204" d="M.42100526-.0079956059C.36767069-.0079956059 .3181661 .0010019938 .27249146 .018997193 .22682698 .037002565 .18732707 .06216939 .1539917 .09449768 .120666507 .12683614 .094670619 .16466777 .07600403 .20799256 .057337446 .2513275 .04800415 .29866538 .04800415 .3500061 .04800415 .40133668 .057337446 .44866944 .07600403 .4920044 .094670619 .53533938 .120666507 .57317098 .1539917 .60549929 .18732707 .6378377 .22665914 .6630046 .27198792 .68099978 .31732688 .69899496 .3669993 .70799258 .42100526 .70799258 .4743398 .70799258 .5235036 .6991577 .5684967 .68148806 .61349996 .66382858 .65283206 .6388295 .6864929 .6064911 .720164 .5741628 .746165 .5363312 .76449587 .49299623 .7828369 .44966126 .79200747 .4019979 .79200747 .3500061 .79200747 .29800416 .7828369 .2503357 .76449587 .20700073 .746165 .16366577 .720164 .12582906 .6864929 .0934906 .65283206 .06116231 .61349996 .03616333 .5684967 .018493653 .5235036 .00083414718 .4743398-.0079956059 .42100526-.0079956059M.42100526 .08099365C.45967103 .08099365 .49550376 .08766174 .5285034 .100997928 .5615031 .11433411 .59016928 .13316854 .61450198 .15750122 .63883468 .18183391 .65783187 .21033223 .67149356 .24299622 .6851654 .27567039 .69200137 .31134034 .69200137 .3500061 .69200137 .38867188 .6851654 .42433677 .67149356 .45700074 .65783187 .4896647 .63883468 .518163 .61450198 .5424957 .59016928 .5668284 .5615031 .58566287 .5285034 .598999 .49550376 .6123352 .45967103 .6190033 .42100526 .6190033 .3816681 .6190033 .34549967 .6123352 .3125 .598999 .27950035 .58566287 .2506663 .5668284 .22599793 .5424957 .20132955 .518163 .18215943 .4896647 .16848755 .45700074 .15482585 .42433677 .147995 .38867188 .147995 .3500061 .147995 .31134034 .15482585 .27567039 .16848755 .24299622 .18215943 .21033223 .20132955 .18183391 .22599793 .15750122 .2506663 .13316854 .27950035 .11433411 .3125 .100997928 .34549967 .08766174 .3816681 .08099365 .42100526 .08099365Z"/>
<path id="font_9_279" d="M.2440033 0V.6130066H.0039978029V.69999697H.58299258V.6130066H.34300233V0H.2440033Z"/>
<path id="font_9_167" d="M.10499573 0V.69999697H.20500183V.087005618H.58399966V0H.10499573Z"/>
<path id="font_9_735" d="M.014007568 0 .2420044 .29600526 .24099732 .24699402 .024002076 .5299988H.1309967L.29699708 .31199647H.2559967L.42199708 .5299988H.5269928L.30700685 .24499512 .30799867 .29600526 .5379944 0H.42900086L.2539978 .23199463 .29299928 .22599793 .1210022 0H.014007568Z"/>
<path id="font_9_1084" d="M.33399964-.0079956059C.2793325-.0079956059 .23049927 .0060017907 .1875 .033996583 .14450073 .062001546 .11049906 .10266622 .085494998 .1559906 .0605011 .20932515 .04800415 .27399699 .04800415 .3500061 .04800415 .42600505 .0605011 .49066673 .085494998 .5439911 .11049906 .5973256 .14450073 .6379903 .1875 .6659851 .23049927 .69399008 .2793325 .70799258 .33399964 .70799258 .3879954 .70799258 .43666078 .69399008 .47999574 .6659851 .5233307 .6379903 .55733236 .5973256 .58200076 .5439911 .6066691 .49066673 .6190033 .42600505 .6190033 .3500061 .6190033 .27399699 .6066691 .20932515 .58200076 .1559906 .55733236 .10266622 .5233307 .062001546 .47999574 .033996583 .43666078 .0060017907 .3879954-.0079956059 .33399964-.0079956059M.33399964 .08099365C.3706716 .08099365 .40283714 .09099325 .43049623 .11099243 .4581655 .13100179 .47983299 .16100566 .49549867 .20100403 .51116439 .2410024 .5189972 .29066978 .5189972 .3500061 .5189972 .40933229 .51116439 .45899455 .49549867 .49899293 .47983299 .53900149 .4581655 .5690053 .43049623 .5890045 .40283714 .6090037 .3706716 .6190033 .33399964 .6190033 .29733787 .6190033 .2650045 .6090037 .23699951 .5890045 .20900472 .5690053 .18716939 .53900149 .17149353 .49899293 .15582784 .45899455 .147995 .40933229 .147995 .3500061 .147995 .29066978 .15582784 .2410024 .17149353 .20100403 .18716939 .16100566 .20900472 .13100179 .23699951 .11099243 .2650045 .09099325 .29733787 .08099365 .33399964 .08099365Z"/>
<path id="font_9_45" d="M.41799928-.0079956059C.3646647-.0079956059 .31549583 .00083414718 .27049256 .018493653 .22549947 .03616333 .1865031 .06116231 .15350342 .0934906 .120503749 .12582906 .094670619 .16366577 .07600403 .20700073 .057337446 .2503357 .04800415 .29800416 .04800415 .3500061 .04800415 .4019979 .057337446 .44966126 .07600403 .49299623 .094670619 .5363312 .120666507 .5741628 .1539917 .6064911 .18732707 .6388295 .22649639 .66382858 .27149964 .68148806 .3165029 .6991577 .36567179 .70799258 .41900636 .70799258 .4730021 .70799258 .5228322 .6988271 .5684967 .6804962 .6141612 .66216537 .6529948 .6349996 .68499758 .598999L.6199951 .5359955C.59333297 .5640004 .56333419 .5848338 .5299988 .5984955 .49666343 .61216738 .46099855 .6190033 .42300416 .6190033 .383667 .6190033 .34716288 .6123352 .31349183 .598999 .27983094 .58566287 .2506663 .5669963 .22599793 .54299929 .20132955 .51900228 .18215943 .49050395 .16848755 .45750428 .15482585 .4245046 .147995 .38867188 .147995 .3500061 .147995 .31134034 .15482585 .27550254 .16848755 .24249268 .18215943 .209493 .20132955 .18099468 .22599793 .15699768 .2506663 .13300069 .27983094 .11433411 .31349183 .100997928 .34716288 .08766174 .383667 .08099365 .42300416 .08099365 .46099855 .08099365 .49666343 .0878245 .5299988 .101486209 .56333419 .11515808 .59333297 .1363271 .6199951 .16499329L.68499758 .102005008C.6529948 .06600443 .6141612 .038670858 .5684967 .020004273 .5228322 .0013376871 .4726664-.0079956059 .41799928-.0079956059Z"/>
<path id="font_9_1090" d="M.34199525-.0079956059C.27999369-.0079956059 .22699483 .005671183 .18299866 .03300476 .13900249 .060338338 .10550436 .09983826 .08250427 .15150452 .059504194 .20317078 .04800415 .26633708 .04800415 .34100343 .04800415 .42033897 .062001546 .4873352 .08999634 .5419922 .118001308 .59665939 .15700276 .6379903 .20700073 .6659851 .2569987 .69399008 .31433106 .70799258 .3789978 .70799258 .41233317 .70799258 .4441681 .7046611 .47450257 .69799807 .50483706 .691335 .5310008 .6810048 .5529938 .66700747L.5149994 .5890045C.49700419 .6016693 .47650657 .61033126 .45350648 .61499026 .43050639 .6196594 .40633647 .621994 .3809967 .621994 .30966697 .621994 .2530009 .59982809 .21099854 .5554962 .16899617 .51116439 .147995 .44533286 .147995 .3580017 .147995 .3440043 .1486613 .32733665 .1499939 .30799867 .15132649 .28867088 .15466309 .26967369 .16000366 .25100709L.12600708 .28500367C.13600667 .31566368 .15183513 .3414917 .17349243 .3624878 .19515991 .38349406 .22116089 .39916484 .25149537 .40950013 .28182984 .41983543 .31466676 .42500306 .3500061 .42500306 .39666749 .42500306 .43799845 .41633607 .47399903 .39900209 .5099996 .3816681 .5383301 .35716758 .5589905 .3255005 .5796611 .2938334 .58999636 .2563324 .58999636 .21299744 .58999636 .16832988 .57899478 .12932842 .5569916 .09599304 .5349986 .06266785 .5053355 .037002565 .46800233 .018997193 .43066917 .0010019938 .38866679-.0079956059 .34199525-.0079956059M.33799745 .07299805C.3686676 .07299805 .39550273 .07866415 .4185028 .08999634 .4415029 .10132853 .45966593 .11716207 .47299195 .13749695 .48632813 .15783184 .49299623 .18166606 .49299623 .20899964 .49299623 .2503306 .47866313 .28316245 .44999696 .30749513 .42133079 .3318278 .38232932 .34399415 .33299256 .34399415 .30099998 .34399415 .2730001 .33799235 .24899292 .32598878 .22499593 .31399537 .2061615 .2978312 .19248963 .27749635 .17882793 .25716148 .17199707 .23399353 .17199707 .20799256 .17199707 .18399556 .17832947 .16182964 .19099427 .14149475 .20366924 .121159877 .22233582 .104660037 .24699402 .09199524 .27166239 .079330448 .30199687 .07299805 .33799745 .07299805Z"/>
<path id="font_9_189" d="M.10499573 0V.69999697H.18699646L.6499939 .125H.6069946V.69999697H.70700076V0H.625L.16200257 .57499697H.20500183V0H.10499573Z"/>
<path id="font_9_110" d="M.42100526-.0079956059C.3669993-.0079956059 .31732688 .00083414718 .27198792 .018493653 .22665914 .03616333 .18732707 .06116231 .1539917 .0934906 .120666507 .12582906 .094670619 .16366577 .07600403 .20700073 .057337446 .2503357 .04800415 .29800416 .04800415 .3500061 .04800415 .4019979 .057337446 .44966126 .07600403 .49299623 .094670619 .5363312 .12083435 .5741628 .15449524 .6064911 .1881663 .6388295 .22766622 .66382858 .272995 .68148806 .31833396 .6991577 .368337 .70799258 .42300416 .70799258 .47833253 .70799258 .52899679 .69899496 .57499697 .68099978 .62099716 .6630046 .6599986 .63600668 .69200137 .6000061L.6300049 .5379944C.6013387 .5659993 .5701701 .5865021 .536499 .59950259 .50282797 .61250308 .46632896 .6190033 .42700196 .6190033 .38700358 .6190033 .34983827 .6123352 .31550599 .598999 .2811737 .58566287 .25150553 .5669963 .22650147 .54299929 .20149739 .51900228 .18215943 .49050395 .16848755 .45750428 .15482585 .4245046 .147995 .38867188 .147995 .3500061 .147995 .31200157 .15482585 .27649943 .16848755 .24349976 .18215943 .21050008 .20149739 .18183391 .22650147 .15750122 .25150553 .13316854 .28100587 .11433411 .31500245 .100997928 .34899903 .08766174 .3859965 .08099365 .42599488 .08099365 .46332804 .08099365 .49916078 .0868276 .53349307 .09849548 .5678355 .11016337 .5996704 .12966411 .6289978 .15699768L.68600466 .08099365C.65133669 .05166626 .6108348 .029500327 .5644989 .01449585 .518163-.0004984538 .47033183-.0079956059 .42100526-.0079956059M.68600466 .08099365 .58999636 .09399414V.3540039H.68600466V.08099365Z"/>
<path id="font_9_122" d="M.6069946 0V.69999697H.70700076V0H.6069946M.10499573 0V.69999697H.20500183V0H.10499573M.19500733 .31199647V.39900209H.6159973V.31199647H.19500733Z"/>
<path id="font_9_266" d="M.30900575-.0079956059C.25567118-.0079956059 .20466614 .00016784668 .1559906 .016494751 .10732523 .03283183 .068995159 .054000856 .041000368 .08000183L.07800293 .15800476C.10466512 .13466899 .1386617 .11533102 .17999268 .099990848 .22133382 .08466085 .26433818 .07699585 .30900575 .07699585 .3496653 .07699585 .3826599 .08165995 .4079895 .09098816 .43332926 .10032654 .45199586 .11316427 .46398927 .12950135 .47599284 .14583843 .48199464 .16433716 .48199464 .18499756 .48199464 .20899455 .47416178 .22832744 .4584961 .24299622 .4428304 .257665 .4224955 .26950074 .39749146 .27850343 .37249757 .2875061 .34500123 .29533897 .31500245 .30200196 .28500367 .30866496 .25483705 .3164978 .22450257 .3255005 .19416809 .33450318 .16649883 .3460032 .14149475 .3600006 .116500858 .37399803 .096333827 .39282737 .08099365 .41648866 .06566366 .44016014 .057998659 .47066245 .057998659 .5079956 .057998659 .54399618 .067499797 .5771637 .086502078 .60749819 .10550436 .63783267 .13483684 .66216537 .17449951 .6804962 .21416219 .6988271 .2646637 .70799258 .32600404 .70799258 .3666636 .70799258 .40699259 .70265707 .44699098 .6919861 .4869995 .68132528 .5216675 .6659953 .5509949 .6459961L.5180054 .56599429C.4880066 .58599349 .4563395 .6004944 .42300416 .6094971 .3896688 .61849978 .35733543 .6230011 .32600404 .6230011 .28666688 .6230011 .2543284 .6180013 .22898865 .6080017 .20365906 .59800216 .18516033 .58466598 .17349243 .56799319 .16183472 .55133059 .15600586 .532664 .15600586 .5119934 .15600586 .4873352 .1638387 .46767173 .1795044 .45300294 .19517009 .43833415 .21549988 .42666627 .24049378 .41799928 .26549784 .40933229 .29299928 .40149943 .32299806 .39450074 .35299684 .38750205 .38316346 .3796692 .41349793 .3710022 .4438324 .3623352 .47149659 .35099793 .49649049 .33699037 .52149459 .32299296 .54166159 .3043264 .5569916 .2809906 .5723317 .257665 .58000186 .22766622 .58000186 .19099427 .58000186 .15566509 .5703328 .12283325 .5509949 .09249878 .53166708 .062164308 .5018361 .037831624 .46150209 .019500733 .421168 .0011698405 .3703359-.0079956059 .30900575-.0079956059Z"/>
<path id="font_9_134" d="M.10499573 0V.69999697H.20500183V0H.10499573Z"/>
<path id="font_9_331" d="M.26600648 0 .03199768 .69999697H.1349945L.3500061 .054000856H.29800416L.5209961 .69999697H.6130066L.83099368 .054000856H.78100588L.9989929 .69999697H1.09L.8600006 0H.7550049L.5509949 .598999H.5780029L.3730011 0H.26600648Z"/>
<path id="font_9_1088" d="M.037994386 .17199707V.2420044L.3959961 .69999697H.5039978L.14900208 .2420044 .0980072 .2579956H.6569977V.17199707H.037994386M.42700196 0V.17199707L.42999269 .2579956V.41000367H.5240021V0H.42700196Z"/>
<path id="font_9_575" d="M.09100342 0V.5299988H.18299866V.38900758L.16799927 .42500306C.18466187 .45967103 .21032715 .4866689 .24499512 .5059967 .2796631 .52533468 .31999717 .53500369 .3659973 .53500369 .41666667 .53500369 .46033225 .52250167 .49699403 .49749757 .53366598 .47250367 .55766806 .43467204 .56900027 .3840027L.5299988 .3999939C.5460002 .44066368 .57400009 .47333274 .6139984 .4980011 .65399679 .5226695 .70066329 .53500369 .7539978 .53500369 .7966614 .53500369 .83432516 .5266673 .86698916 .5099945 .89966329 .4933319 .92516586 .46799723 .9434967 .43399049 .9618276 .3999939 .97099307 .35699464 .97099307 .30499269V0H.875V.29400636C.875 .3453369 .8629964 .3840027 .83898928 .41000367 .81499227 .43600465 .78133139 .44900514 .7380066 .44900514 .70600387 .44900514 .67799887 .44233705 .6539917 .42900086 .6299947 .41566468 .611496 .3959961 .5984955 .36999513 .585495 .34399415 .57899478 .31166078 .57899478 .272995V0H.4830017V.29400636C.4830017 .3453369 .47116599 .3840027 .4474945 .41000367 .42383323 .43600465 .3899994 .44900514 .34599305 .44900514 .31466166 .44900514 .28699748 .44233705 .2630005 .42900086 .2390035 .41566468 .22033692 .3959961 .20700073 .36999513 .19366455 .34399415 .18699646 .31166078 .18699646 .272995V0H.09100342Z"/>
<path id="font_9_1" d="M-.0010070801 0 .31599427 .69999697H.4149933L.7330017 0H.628006L.34500123 .6439972H.3849945L.102005008 0H-.0010070801M.13400269 .17500305 .16099549 .25500489H.5549927L.58399966 .17500305H.13400269Z"/>
<path id="font_9_107" d="M.10499573 0V.69999697H.598999V.6130066H.20500183V0H.10499573M.19500733 .28300477V.3690033H.55599978V.28300477H.19500733Z"/>
<path id="font_9_325" d="M.30700685 0-.0010070801 .69999697H.10699463L.3899994 .054000856H.32800294L.6130066 .69999697H.71299746L.40600587 0H.30700685Z"/>
<path id="font_9_254" d="M.10499573 0V.69999697H.37800599C.4686737 .69999697 .5400035 .6784973 .59199526 .63549807 .6439972 .5924988 .66999819 .532664 .66999819 .45599366 .66999819 .40533448 .65833029 .36183677 .6349945 .3255005 .6116689 .28916423 .5783386 .26132713 .53500369 .24198914 .4916687 .22266133 .43933616 .21299744 .37800599 .21299744H.16000366L.20500183 .2590027V0H.10499573M.57299807 0 .39500428 .2539978H.5019989L.68200686 0H.57299807M.20500183 .24899292 .16000366 .29800416H.375C.43899537 .29800416 .4874929 .3118337 .52049258 .3394928 .5535024 .36716209 .5700073 .4059957 .5700073 .45599366 .5700073 .5060018 .5535024 .54467269 .52049258 .5720062 .4874929 .5993398 .43899537 .6130066 .375 .6130066H.16000366L.20500183 .6629944V.24899292Z"/>
<path id="font_9_37" d="M.10499573 0V.69999697H.41900636C.4996643 .69999697 .56166079 .6838277 .6049957 .65148928 .6483307 .61916097 .66999819 .57499697 .66999819 .5189972 .66999819 .4810028 .661499 .44900514 .64450076 .42300416 .62750247 .39700318 .6046702 .3769989 .576004 .36299134 .54733785 .34899394 .5163371 .34199525 .4830017 .34199525L.5010071 .37199403C.54100546 .37199403 .57633468 .36499534 .6069946 .35099793 .6376648 .33700053 .6619975 .3164978 .6799927 .28948976 .69799807 .26249186 .70700076 .22899373 .70700076 .18899536 .70700076 .1289978 .6844991 .08249918 .63949587 .04949951 .59450277 .016499838 .52766928 0 .43899537 0H.10499573M.20500183 .08099365H.43499757C.4903361 .08099365 .53266909 .09032694 .56199648 .10899353 .59133407 .12766011 .6060028 .15699768 .6060028 .19700623 .6060028 .23766582 .59133407 .2673289 .56199648 .28599549 .53266909 .30466209 .4903361 .31399537 .43499757 .31399537H.19599915V.39500428H.41000367C.46066285 .39500428 .4999949 .40433757 .5279999 .42300416 .5560048 .44167076 .5700073 .46967063 .5700073 .5070038 .5700073 .544337 .5560048 .57233688 .5279999 .5910034 .4999949 .60967 .46066285 .6190033 .41000367 .6190033H.20500183V.08099365Z"/>
<path id="font_9_342" d="M.27400209 0V.26800538L.29699708 .20599365-.0039978029 .69999697H.102996829L.3560028 .28300477H.29800416L.55200198 .69999697H.651001L.35099793 .20599365 .3730011 .26800538V0H.27400209Z"/>
</defs>
<g clip-path="url(#clip_1)">
<g clip-path="url(#clip_2)">
<g clip-path="url(#clip_3)">
<g inkscape:groupmode="layer" inkscape:label="Visible Narrow (ANSI)">
<path stroke-width="1.08" stroke-linecap="round" stroke-linejoin="round" fill="none" stroke="#404041" d="M184.41 158.65L182.97 158.65L181.35 158.83L179.91 158.83L178.29 159.19L176.67 159.37L175.23 159.73L173.61 159.91L172.17 160.45L170.55 160.81L169.11 161.35L167.49 161.89L166.05 162.61L164.43 163.15L162.99 163.87L161.55 164.77L159.93 165.49L158.49 166.39L157.05 167.47L155.61 168.37L154.17 169.45L152.73 170.53L151.29 171.61L149.85 172.87L148.41 174.13L146.97 175.39L145.53 176.65L144.09 178.09L142.83 179.53L141.39 180.97L140.13 182.59L138.69 184.03L137.43 185.65L136.17 187.45L134.91 189.07L133.47 190.87L132.21 192.67L130.95 194.47L129.87 196.45L128.61 198.43L127.35 200.41L126.27 202.39L125.01 204.37L123.93 206.53M119.97 214.27L118.89 216.61L117.99 218.95L116.91 221.29L115.83 223.63L114.93 226.15L114.03 228.49L113.13 231.01L112.05 233.53L111.33 236.05L110.43 238.75L109.53 241.27L108.81 243.97L107.91 246.67L107.19 249.37L106.47 252.07L105.75 254.77L105.03 257.65L104.31 260.53L103.59 263.23L103.05 266.11L102.51 268.99L101.79 271.87L101.25 274.75L100.71 277.81L100.35 280.69L99.81 283.75L99.45 286.63L98.91 289.69L98.55 292.75L98.19 295.63L97.83 298.69L97.47 301.75L97.29 304.81L96.93 307.87L96.75 310.93L96.57 314.17L96.39 317.23L96.21 320.29L96.03 323.35L96.03 326.41L96.03 329.65L95.85 332.71L95.85 335.77M184.41 158.65L184.41 513.07M1024.29 335.77L1024.29 332.71L1024.11 329.47L1024.11 326.41L1023.93 323.17L1023.93 320.11L1023.75 316.87L1023.57 313.81L1023.39 310.57L1023.03 307.51L1022.85 304.45L1022.49 301.21L1022.13 298.15L1021.77 295.09L1021.41 292.03L1021.05 288.97L1020.69 285.91L1020.15 282.85L1019.79 279.97L1019.25 276.91L1018.71 273.85L1018.17 270.97L1017.45 268.09L1016.91 265.21L1016.19 262.15L1015.47 259.45L1014.93 256.57L1014.21 253.69L1013.31 250.99L1012.59 248.11L1011.87 245.41L1010.97 242.71L1010.25 240.01L1009.35 237.49L1008.45 234.79L1007.55 232.27L1006.65 229.75L1005.57 227.23L1004.67 224.71L1003.59 222.19L1002.51 219.85L1001.61 217.51L1000.53 215.17L999.45 212.83L998.37 210.49L997.11 208.33L996.03 206.17L994.77 204.01L993.69 201.85L992.43 199.87L991.17 197.89L989.91 195.91L988.65 193.93L987.39 192.13L986.13 190.33L984.87 188.53L983.61 186.73L982.17 185.11L980.91 183.49L979.47 181.87L978.03 180.25L976.77 178.81L975.33 177.37L973.89 175.93L972.45 174.67L971.01 173.41L969.57 172.15L968.13 170.89L966.69 169.81L965.07 168.73L963.63 167.65L962.19 166.75L960.57 165.85L959.13 164.95L957.51 164.23L956.07 163.33L954.45 162.79L953.01 162.07L951.39 161.53L949.77 160.99L948.33 160.45L946.71 160.09L945.09 159.73L943.47 159.37L942.03 159.19L940.41 159.01L938.79 158.83L937.17 158.65L935.73 158.65M935.73 158.65L935.73 513.07"/>
<path stroke-width=".54" stroke-linecap="round" stroke-linejoin="round" fill="none" stroke="#404041" d="M184.41 158.65L183.51 158.65L182.43 158.65L181.35 158.83L180.27 158.83L179.19 159.01L178.29 159.19L177.21 159.19L176.13 159.37L175.05 159.73L174.15 159.91L173.07 160.09L171.99 160.45L170.91 160.81L170.01 160.99L168.93 161.35L167.85 161.71L166.95 162.25L165.87 162.61L164.79 163.15L163.89 163.51L162.81 164.05L161.73 164.59L160.83 165.13L159.75 165.67L158.85 166.21L157.77 166.93L156.87 167.47L155.79 168.19L154.89 168.91L153.81 169.63L152.91 170.35L152.01 171.07L150.93 171.79L150.03 172.69L148.95 173.41L148.05 174.31L147.15 175.21L146.25 176.11L145.17 177.01L144.27 177.91L143.37 178.81L142.47 179.89L141.57 180.79L140.67 181.87L139.77 182.95L138.87 184.03L137.97 185.11L137.07 186.19L136.17 187.27L135.27 188.35L134.55 189.61L133.65 190.69L132.75 191.95L131.85 193.21L131.13 194.47L130.23 195.73L129.51 196.99L128.61 198.25L127.89 199.69L126.99 200.95L126.27 202.39L125.55 203.65L124.65 205.09L123.93 206.53M119.97 214.27L119.25 215.89L118.53 217.33L117.99 218.95L117.27 220.57L116.55 222.19L115.83 223.81L115.29 225.43L114.57 227.05L113.85 228.67L113.31 230.29L112.77 232.09L112.05 233.71L111.51 235.51L110.97 237.13L110.25 238.93L109.71 240.73L109.17 242.53L108.63 244.15L108.09 245.95L107.55 247.93L107.01 249.73L106.65 251.53L106.11 253.33L105.57 255.13L105.21 257.11L104.67 258.91L104.13 260.89L103.77 262.69L103.41 264.67L102.87 266.65L102.51 268.45L102.15 270.43L101.79 272.41L101.43 274.39L101.07 276.37L100.71 278.35L99.99 282.31L99.45 286.27L98.91 290.23L98.37 294.37L97.83 298.51L97.47 302.47L97.11 306.61L96.75 310.75L96.57 314.89L96.21 319.03L96.03 323.35L96.03 327.49L95.85 331.63L95.85 335.77L95.85 340.27L96.03 344.59L96.21 348.91L96.39 353.23L96.57 357.55L96.93 361.87L97.11 366.19L97.65 370.33L98.01 374.65L98.37 376.81L98.55 378.79L98.73 380.95L99.09 383.11L99.45 385.09L99.63 387.25L99.99 389.41L100.35 391.39L100.71 393.55L101.07 395.53L101.43 397.51L101.79 399.67L102.15 401.65L102.69 403.63L103.05 405.61L103.41 407.59L103.95 409.57L104.31 411.55L104.85 413.53L105.39 415.51L105.93 417.49L106.29 419.29L106.83 421.27L107.37 423.07L107.91 425.05L108.45 426.85L108.99 428.83L109.71 430.63L110.25 432.43L110.79 434.23L111.51 436.03L112.05 437.83L112.59 439.63L113.31 441.43L114.03 443.05L114.57 444.85L115.29 446.47L116.01 448.27L116.73 449.89L117.45 451.51L118.17 453.13L118.89 454.75L119.61 456.37L120.33 457.99L121.05 459.61L121.77 461.05L122.67 462.67L123.39 464.11L124.11 465.55L125.01 467.17L125.73 468.61L126.63 470.05L127.35 471.31L128.25 472.75L129.15 474.19L130.05 475.45L130.77 476.89L131.67 478.15L132.57 479.41L133.47 480.67L134.37 481.93L135.27 483.19L136.17 484.27L137.07 485.53L137.97 486.61L138.87 487.87L139.95 488.95L140.85 490.03L141.75 491.11L142.65 492.01L143.73 493.09L144.63 494.17L145.53 495.07L146.61 495.97L147.51 496.87L148.59 497.77L149.49 498.67L150.57 499.57L151.65 500.29L152.55 501.19L153.63 501.91L154.71 502.63L155.61 503.35L156.69 504.07L157.77 504.79L158.67 505.33L159.75 506.05L160.83 506.59L161.91 507.13L162.99 507.67L164.07 508.21L165.15 508.75L166.05 509.11L167.13 509.65L168.21 510.01L169.29 510.37L170.37 510.73L171.45 511.09L172.53 511.45L173.61 511.63L174.69 511.99L175.77 512.17L176.85 512.35L177.93 512.53L179.01 512.71L180.09 512.71L181.17 512.89L182.25 512.89L183.33 513.07L184.41 513.07M184.41 158.65L204.93 158.65M184.41 513.07L219.87 513.07M334.17 158.65L368.73 158.65M333.27 513.07L368.73 513.07M935.73 513.07L936.81 513.07L937.89 512.89L938.97 512.89L940.05 512.71L941.13 512.71L942.21 512.53L943.29 512.35L944.37 512.17L945.45 511.99L946.53 511.63L947.61 511.45L948.69 511.09L949.77 510.73L950.85 510.37L951.93 510.01L953.01 509.65L953.91 509.11L954.99 508.75L956.07 508.21L957.15 507.67L958.23 507.13L959.31 506.59L960.39 506.05L961.29 505.33L962.37 504.79L963.45 504.07L964.53 503.35L965.43 502.63L966.51 501.91L967.59 501.19L968.49 500.29L969.57 499.57L970.47 498.67L971.55 497.77L972.45 496.87L973.53 495.97L974.43 495.07L975.51 493.99L976.41 493.09L977.49 492.01L978.39 491.11L979.29 490.03L980.19 488.95L981.27 487.87L982.17 486.61L983.07 485.53L983.97 484.27L984.87 483.19L985.77 481.93L986.67 480.67L987.57 479.41L988.47 478.15L989.37 476.89L990.09 475.45L990.99 474.19L991.89 472.75L992.61 471.31L993.51 470.05L994.41 468.61L995.13 467.17L995.85 465.55L996.75 464.11L997.47 462.67L998.37 461.05L999.09 459.61L999.81 457.99L1000.53 456.37L1001.25 454.75L1001.97 453.13L1002.69 451.51L1003.41 449.89L1004.13 448.27L1004.85 446.47L1005.57 444.85L1006.11 443.05L1006.83 441.43L1007.37 439.63L1008.09 437.83L1008.63 436.03L1009.35 434.23L1009.89 432.43L1010.43 430.63L1011.15 428.83L1011.69 426.85L1012.23 425.05L1012.77 423.07L1013.31 421.27L1013.85 419.29L1014.21 417.49L1014.75 415.51L1015.29 413.53L1015.65 411.55L1016.19 409.57L1016.55 407.59L1017.09 405.61L1017.45 403.63L1017.81 401.65L1018.35 399.67L1018.71 397.51L1019.07 395.53L1019.43 393.55L1019.79 391.39L1020.15 389.41L1020.33 387.25L1020.69 385.09L1021.05 383.11L1021.23 380.95L1021.59 378.79L1021.77 376.81L1022.13 374.65L1022.49 370.33L1022.85 366.19L1023.21 361.87L1023.57 357.55L1023.75 353.23L1023.93 348.91L1024.11 344.59L1024.29 340.27L1024.29 335.77L1024.29 331.45L1024.11 327.13L1023.93 322.81L1023.75 318.49L1023.57 314.17L1023.21 309.85L1022.85 305.53L1022.49 301.21L1022.13 297.07L1021.77 294.91L1021.59 292.75L1021.23 290.59L1021.05 288.61L1020.69 286.45L1020.33 284.47L1020.15 282.31L1019.79 280.33L1019.43 278.17L1019.07 276.19L1018.71 274.03L1018.35 272.05L1017.81 270.07L1017.45 268.09L1017.09 266.11L1016.55 263.95L1016.19 261.97L1015.65 260.17L1015.29 258.19L1014.75 256.21L1014.21 254.23L1013.85 252.25L1013.31 250.45L1012.77 248.47L1012.23 246.67L1011.69 244.69L1011.15 242.89L1010.43 241.09L1009.89 239.29L1009.35 237.49L1008.63 235.69L1008.09 233.89L1007.37 232.09L1006.83 230.29L1006.11 228.49L1005.57 226.87L1004.85 225.07L1004.13 223.45L1003.41 221.83L1002.69 220.03L1001.97 218.41L1001.25 216.79L1000.53 215.17L999.81 213.73L999.09 212.11L998.37 210.49L997.47 209.05L996.75 207.61L995.85 205.99L995.13 204.55L994.41 203.11L993.51 201.67L992.61 200.23L991.89 198.97L990.99 197.53L990.09 196.09L989.37 194.83L988.47 193.57L987.57 192.31L986.67 191.05L985.77 189.79L984.87 188.53L983.97 187.27L983.07 186.19L982.17 184.93L981.27 183.85L980.19 182.77L979.29 181.69L978.39 180.61L977.49 179.53L976.41 178.63L975.51 177.55L974.43 176.65L973.53 175.75L972.45 174.85L971.55 173.95L970.47 173.05L969.57 172.15L968.49 171.25L967.59 170.53L966.51 169.81L965.43 169.09L964.53 168.37L963.45 167.65L962.37 166.93L961.29 166.21L960.39 165.67L959.31 165.13L958.23 164.59L957.15 164.05L956.07 163.51L954.99 162.97L953.91 162.43L953.01 162.07L951.93 161.71L950.85 161.35L949.77 160.99L948.69 160.63L947.61 160.27L946.53 159.91L945.45 159.73L944.37 159.55L943.29 159.37L942.21 159.19L941.13 159.01L940.05 158.83L938.97 158.83L937.89 158.65L936.81 158.65L935.73 158.65M234.09 513.07L269.55 513.07M928.71 158.65L935.73 158.65M928.71 513.07L935.73 513.07M680.67 158.65L715.95 158.65M680.67 513.07L715.95 513.07M630.99 158.65L666.27 158.65M630.99 513.07L666.27 513.07M581.31 158.65L616.77 158.65M581.31 513.07L616.77 513.07M531.81 158.65L567.09 158.65M531.81 513.07L567.09 513.07M482.13 158.65L517.59 158.65M482.13 513.07L517.59 513.07M432.63 158.65L467.91 158.65M432.63 513.07L467.91 513.07M382.95 158.65L418.41 158.65M382.95 513.07L418.41 513.07M283.77 513.07L319.05 513.07M730.17 158.65L736.83 158.65M730.17 513.07L765.63 513.07M779.85 513.07L815.13 513.07M829.35 513.07L864.81 513.07M907.65 158.65L914.31 158.65M879.03 513.07L914.31 513.07"/>
</g>
<g inkscape:groupmode="layer" inkscape:label="Visible (ANSI)">
<path stroke-width=".54" stroke-linecap="round" stroke-linejoin="round" fill="none" stroke="#404041" d="M219.87 177.19L209.25 177.19M222.75 171.61L221.31 174.49L219.87 177.19M231.21 171.61L222.75 171.61M234.09 177.19L232.65 174.49L231.21 171.61M269.55 177.19L234.09 177.19M272.43 171.61L270.99 174.49L269.55 177.19M280.89 171.61L272.43 171.61M283.77 177.19L282.33 174.49L280.89 171.61M319.05 177.19L283.77 177.19M321.93 171.61L320.49 174.49L319.05 177.19M329.67 171.61L321.93 171.61"/>
</g>
<g inkscape:groupmode="layer" inkscape:label="Visible Narrow (ANSI)">
<path stroke-width="1.08" stroke-linecap="round" stroke-linejoin="round" fill="none" stroke="#404041" d="M329.67 116.17L329.67 171.61"/>
<path stroke-width=".54" stroke-linecap="round" stroke-linejoin="round" fill="none" stroke="#404041" d="M209.25 116.17L329.67 116.17"/>
<path stroke-width="1.08" stroke-linecap="round" stroke-linejoin="round" fill="none" stroke="#404041" d="M209.25 116.17L209.25 177.19"/>
<path stroke-width=".54" stroke-linecap="round" stroke-linejoin="round" fill="none" stroke="#404041" d="M209.25 177.19L208.89 177.19L208.35 177.19L207.99 177.01L207.45 177.01L207.09 176.83L206.73 176.83L206.37 176.65L206.01 176.47L205.83 176.29L205.65 176.11L205.29 175.93L205.11 175.75L205.11 175.57L204.93 175.39L204.93 175.21L204.93 175.03M204.93 175.03L204.93 116.17L209.25 116.17M334.17 175.03L334.17 175.21L334.17 175.39L333.99 175.57L333.81 175.75L333.63 175.93L333.45 176.11L333.27 176.29L333.09 175.93L332.91 175.75L332.73 175.57L332.55 175.21L332.37 175.03L332.19 174.67L332.01 174.13L331.65 173.59L331.29 172.87L330.93 172.33L330.57 171.61L330.03 171.61L329.67 171.61M329.67 116.17L334.17 116.17L334.17 175.03"/>
</g>
<g inkscape:groupmode="layer" inkscape:label="Visible (ANSI)">
<path stroke-width=".54" stroke-linecap="round" stroke-linejoin="round" fill="none" stroke="#404041" d="M219.87 513.07L219.87 177.19M222.75 171.61L222.75 517.93M231.21 171.61L231.21 517.93M234.09 177.19L234.09 513.07M219.87 513.07L222.75 517.93L231.21 517.93L234.09 513.07M368.73 513.07L368.73 158.65M333.27 176.29L333.27 513.07M269.55 513.07L269.55 177.19M928.71 158.65L928.71 513.07M680.67 158.65L680.67 513.07M715.95 513.07L715.95 158.65M630.99 158.65L630.99 513.07M666.27 513.07L666.27 158.65M581.31 158.65L581.31 513.07M616.77 513.07L616.77 158.65M531.81 158.65L531.81 513.07M567.09 513.07L567.09 158.65M482.13 158.65L482.13 513.07M517.59 513.07L517.59 158.65M432.63 158.65L432.63 513.07M467.91 513.07L467.91 158.65M382.95 158.65L382.95 513.07M418.41 513.07L418.41 158.65M283.77 177.19L283.77 513.07M319.05 513.07L319.05 177.19M280.89 171.61L280.89 517.93M272.43 171.61L272.43 517.93M330.57 171.61L330.57 517.93M321.93 171.61L321.93 517.93M380.07 153.79L380.07 517.93M371.61 153.79L371.61 517.93M429.75 153.79L429.75 517.93M421.11 153.79L421.11 517.93M479.25 153.79L479.25 517.93M470.79 153.79L470.79 517.93M528.93 153.79L528.93 517.93M520.47 153.79L520.47 517.93M578.43 153.79L578.43 517.93M569.97 153.79L569.97 517.93M628.11 153.79L628.11 517.93M619.65 153.79L619.65 517.93M677.79 153.79L677.79 517.93M669.15 153.79L669.15 517.93M727.29 153.79L727.29 517.93M730.17 158.65L730.17 513.07M718.83 153.79L718.83 517.93M925.83 153.79L925.83 517.93M917.19 153.79L917.19 517.93M914.31 513.07L914.31 158.65M765.63 513.07L765.63 170.53M768.51 166.21L768.51 517.93M776.97 168.73L776.97 517.93M779.85 175.03L779.85 513.07M815.13 513.07L815.13 180.43M818.01 175.03L818.01 517.93M826.47 175.03L826.47 517.93M829.35 180.43L829.35 513.07M864.81 513.07L864.81 174.85M867.69 168.73L867.69 517.93M876.15 166.21L876.15 517.93M879.03 170.53L879.03 513.07M283.77 513.07L280.89 517.93L272.43 517.93L269.55 513.07M333.27 513.07L330.57 517.93L321.93 517.93L319.05 513.07M382.95 513.07L380.07 517.93M382.95 158.65L380.07 153.79L371.61 153.79M371.61 517.93L380.07 517.93M368.73 158.65L371.61 153.79M368.73 513.07L371.61 517.93M432.63 513.07L429.75 517.93M432.63 158.65L429.75 153.79L421.11 153.79M421.11 517.93L429.75 517.93M418.41 158.65L421.11 153.79M418.41 513.07L421.11 517.93M482.13 513.07L479.25 517.93M482.13 158.65L479.25 153.79L470.79 153.79M470.79 517.93L479.25 517.93M467.91 158.65L470.79 153.79M467.91 513.07L470.79 517.93M531.81 513.07L528.93 517.93M531.81 158.65L528.93 153.79L520.47 153.79M520.47 517.93L528.93 517.93M517.59 158.65L520.47 153.79M517.59 513.07L520.47 517.93M581.31 513.07L578.43 517.93M581.31 158.65L578.43 153.79L569.97 153.79M569.97 517.93L578.43 517.93M567.09 158.65L569.97 153.79M567.09 513.07L569.97 517.93M630.99 513.07L628.11 517.93M630.99 158.65L628.11 153.79L619.65 153.79M619.65 517.93L628.11 517.93M616.77 158.65L619.65 153.79M616.77 513.07L619.65 517.93M680.67 513.07L677.79 517.93M680.67 158.65L677.79 153.79L669.15 153.79M669.15 517.93L677.79 517.93M666.27 158.65L669.15 153.79M666.27 513.07L669.15 517.93M730.17 513.07L727.29 517.93M730.17 158.65L727.29 153.79L718.83 153.79M718.83 517.93L727.29 517.93M715.95 158.65L718.83 153.79M715.95 513.07L718.83 517.93M928.71 513.07L925.83 517.93M928.71 158.65L925.83 153.79L917.19 153.79M917.19 517.93L925.83 517.93M914.31 158.65L917.19 153.79M914.31 513.07L917.19 517.93M765.63 513.07L768.51 517.93L776.97 517.93L779.85 513.07M815.13 513.07L818.01 517.93L826.47 517.93L829.35 513.07M864.81 513.07L867.69 517.93L876.15 517.93L879.03 513.07M879.03 170.53L878.31 169.45L877.59 168.37L876.15 166.21L875.07 166.57L874.17 166.93L873.09 167.11L872.01 167.47L870.93 167.83L869.85 168.19L868.77 168.37L867.69 168.73L866.97 170.35L866.25 171.79L865.53 173.41L864.81 174.85L863.73 175.21L862.83 175.39L861.75 175.75L860.67 175.93L859.59 176.29L858.51 176.47L857.61 176.65L856.53 177.01L855.45 177.19L854.37 177.37L853.29 177.55L852.03 177.73L850.95 178.09L849.87 178.27L848.79 178.45L847.71 178.63L846.63 178.81L845.37 178.99L844.29 179.17L843.21 179.17L841.95 179.35L840.87 179.53L839.79 179.71L838.53 179.71L837.45 179.89L836.37 180.07L835.11 180.07L834.03 180.25L832.77 180.25L831.69 180.43L830.61 180.43L829.35 180.43L828.63 179.17L827.91 177.73L827.19 176.29L826.47 175.03L825.39 175.03L824.49 175.03L823.41 175.03L822.33 175.03L821.25 175.03L820.17 175.03L819.09 175.03L818.01 175.03L817.29 176.29L816.57 177.73L815.85 179.17L815.13 180.43L814.05 180.43L812.97 180.43L811.71 180.25L810.63 180.25L809.37 180.07L808.29 180.07L807.21 179.89L805.95 179.71L804.87 179.71L803.79 179.53L802.53 179.35L801.45 179.17L800.37 179.17L799.11 178.99L798.03 178.81L796.95 178.63L795.87 178.45L794.61 178.27L793.53 178.09L792.45 177.73L791.37 177.55L790.29 177.37L789.21 177.19L788.13 177.01L787.05 176.65L785.97 176.47L784.89 176.29L783.99 175.93L782.91 175.75L781.83 175.39L780.75 175.21L779.85 175.03L779.13 173.41L778.41 171.79L777.69 170.35L776.97 168.73L775.89 168.37L774.81 168.19L773.73 167.83L772.65 167.47L771.57 167.11L770.49 166.93L769.41 166.57L768.51 166.21L767.07 168.37L766.35 169.45L765.63 170.53L764.73 170.35L764.01 169.99L763.11 169.81L762.39 169.45L760.95 168.91L760.23 168.73L759.33 168.37L758.61 168.19L757.89 167.83L757.17 167.65L756.45 167.29L755.73 166.93L755.19 166.75L754.47 166.39L753.75 166.21L753.03 165.85L752.49 165.67L751.77 165.31L751.23 165.13L750.51 164.95L749.97 164.59L749.25 164.41L748.71 164.05L748.17 163.87L747.63 163.69L747.09 163.33L746.55 163.15L746.01 162.97L745.47 162.61L744.93 162.43L744.57 162.25L744.03 162.07L743.49 161.89L743.13 161.71L742.77 161.35L742.23 161.17L741.87 160.99L741.51 160.81L741.15 160.63L740.79 160.63L740.43 160.45L740.07 160.27L739.89 160.09L739.53 159.91L739.17 159.91L738.99 159.73L738.63 159.55L738.45 159.55L738.27 159.37L738.09 159.19L737.91 159.19L737.73 159.01L737.55 159.01L737.37 159.01L737.19 158.83L737.01 158.83L736.83 158.65M907.65 158.65L907.65 158.65L907.47 158.83L907.29 158.83L907.11 159.01L906.93 159.01L906.75 159.19L906.57 159.19L906.39 159.37L906.21 159.37L905.85 159.55L905.67 159.73L905.31 159.73L904.95 159.91L904.77 160.09L904.41 160.27L904.05 160.45L903.69 160.63L903.15 160.81L902.79 160.99L902.25 161.17L901.89 161.35L901.35 161.71L900.99 161.89L900.45 162.07L899.91 162.25L899.37 162.61L898.83 162.79L898.11 163.15M891.99 165.67L891.27 166.03L890.55 166.21L889.83 166.57L889.11 166.93L888.21 167.11L887.49 167.47L886.77 167.83L885.87 168.19L884.97 168.37L884.25 168.73L883.35 169.09L882.63 169.27L881.73 169.63L880.83 169.99L879.93 170.35L879.03 170.53M907.65 158.65L907.65 116.17L736.83 116.17L736.83 158.65M97.29 204.91L97.29 215.89M97.29 204.91L108.27 204.91L108.27 215.89L97.29 215.89M123.57 214.27L108.27 214.27M127.71 206.53L108.27 206.53M262.34 137.32C262.34 141.24 265.53 144.42 269.45 144.43C273.37 144.43 276.55 141.24 276.56 137.32C276.56 133.4 273.37 130.22 269.45 130.21C265.53 130.21 262.35 133.4 262.34 137.32M277.29 137.32C277.29 133 273.78 129.5 269.46 129.49C265.13 129.49 261.63 133 261.63 137.32C261.62 141.65 265.13 145.15 269.45 145.15C273.78 145.16 277.28 141.65 277.29 137.33M900.17 165.67C894.26 165.67 889.47 170.47 889.46 176.38C889.46 182.29 894.26 187.08 900.17 187.09C906.08 187.09 910.87 182.29 910.88 176.38C910.88 170.47 906.08 165.68 900.17 165.67M900.17 165.13C893.96 165.13 888.93 170.17 888.92 176.38C888.92 182.59 893.96 187.62 900.17 187.63C906.38 187.63 911.41 182.59 911.42 176.38C911.42 170.17 906.38 165.14 900.17 165.13M900.17 164.77C893.76 164.77 888.57 169.97 888.56 176.38C888.56 182.79 893.76 187.98 900.17 187.99C906.58 187.99 911.77 182.79 911.78 176.38C911.78 169.97 906.58 164.78 900.17 164.77M900.17 163.15C892.87 163.15 886.95 169.08 886.94 176.38C886.94 183.68 892.87 189.6 900.17 189.61C907.47 189.61 913.39 183.68 913.4 176.38C913.4 169.08 907.47 163.16 900.17 163.15M900.17 162.97C892.77 162.97 886.77 168.98 886.76 176.38C886.76 183.78 892.77 189.78 900.17 189.79C907.57 189.79 913.57 183.78 913.58 176.38C913.58 168.98 907.57 162.98 900.17 162.97"/>
</g>
<g inkscape:groupmode="layer" inkscape:label="Visible Narrow (ANSI)">
<path stroke-width="1.08" stroke-linecap="round" stroke-linejoin="round" fill="none" stroke="#404041" d="M127.71 206.53L127.89 206.53L127.89 206.71L127.89 206.89L127.89 207.07L127.89 207.25L127.71 207.43L127.71 207.79L127.53 208.15L127.35 208.33L127.17 208.69L126.99 209.05L126.81 209.41L126.63 209.77L126.45 210.13L126.27 210.49L126.09 210.85L125.91 211.21L125.73 211.57L125.55 211.93L125.37 212.29L125.19 212.65L124.83 212.83L124.65 213.19L124.47 213.37L124.29 213.55L124.29 213.73L124.11 213.91L123.93 214.09L123.75 214.27L123.57 214.27"/>
</g>
<g inkscape:groupmode="layer" inkscape:label="Visible Narrow (ANSI)">
</g>
<g inkscape:groupmode="layer" inkscape:label="Visible Narrow (ANSI)">
</g>
<g inkscape:groupmode="layer" inkscape:label="Visible Narrow (ANSI)">
</g>
<g inkscape:groupmode="layer" inkscape:label="Visible Narrow (ANSI)">
</g>
</g>
<g clip-path="url(#clip_4)">
<g inkscape:groupmode="layer" inkscape:label="Visible (ANSI)">
</g>
</g>
<g clip-path="url(#clip_5)">
</g>
<g clip-path="url(#clip_6)">
<g inkscape:groupmode="layer" inkscape:label="Symbol (ANSI)">
</g>
</g>
<g clip-path="url(#clip_7)">
<g inkscape:groupmode="layer" inkscape:label="Symbol (ANSI)">
</g>
<g inkscape:groupmode="layer" inkscape:label="Centerline (ANSI)">
<path stroke-width=".72" stroke-linecap="round" stroke-linejoin="round" fill="none" stroke="#404041" d="M88.29 210.31L97.29 210.31L108.27 210.31L117.27 210.31"/>
</g>
<g inkscape:groupmode="layer" inkscape:label="Dimension (ANSI)">
<path stroke-width=".72" stroke-linecap="round" stroke-linejoin="round" fill="none" stroke="#404041" d="M50.31 217.51L50.31 210.31"/>
<path transform="matrix(1,0,0,-1,-72.99,795.67)" d="M124.74 578.16V578.16L123.3 585.36Z"/>
<path stroke-width=".72" stroke-linecap="round" stroke-linejoin="round" fill="none" stroke="#404041" d="M51.75 217.51L51.75 217.51L50.31 210.31Z"/>
<path transform="matrix(1,0,0,-1,-72.99,795.67)" d="M124.74 578.16 123.3 585.36 121.86 578.16Z"/>
<path stroke-width=".72" stroke-linecap="round" stroke-linejoin="round" fill="none" stroke="#404041" d="M51.75 217.51L50.31 210.31L48.87 217.51ZM51.75 217.51L50.31 210.31L48.87 217.51L51.75 217.51M50.31 505.87L50.31 513.07"/>
<path transform="matrix(1,0,0,-1,-72.99,795.67)" d="M121.86 289.8V289.8L123.3 282.6Z"/>
<path stroke-width=".72" stroke-linecap="round" stroke-linejoin="round" fill="none" stroke="#404041" d="M48.87 505.87L48.87 505.87L50.31 513.07Z"/>
<path transform="matrix(1,0,0,-1,-72.99,795.67)" d="M121.86 289.8 123.3 282.6 124.74 289.8Z"/>
<path stroke-width=".72" stroke-linecap="round" stroke-linejoin="round" fill="none" stroke="#404041" d="M48.87 505.87L50.31 513.07L51.75 505.87ZM48.87 505.87L50.31 513.07L51.75 505.87L48.87 505.87M50.31 217.51L50.31 505.87M85.59 210.31L44.73 210.31M181.71 513.07L44.73 513.07"/>
</g>
<g inkscape:groupmode="layer" inkscape:label="Centerline (ANSI)">
<path stroke-width=".72" stroke-linecap="round" stroke-linejoin="round" fill="none" stroke="#404041" d="M269.55 116.17L269.55 131.47M269.55 139.93L269.55 151.27M269.55 159.73L269.55 175.39M269.55 107.17L269.55 116.17M269.55 175.03L269.55 184.03"/>
</g>
<g inkscape:groupmode="layer" inkscape:label="Center Mark (ANSI)">
<path stroke-width=".72" stroke-linecap="round" stroke-linejoin="round" fill="none" stroke="#404041" d="M260.55 137.41L269.55 137.41L278.55 137.41M269.55 146.41L269.55 137.41L269.55 128.41"/>
</g>
<g inkscape:groupmode="layer" inkscape:label="Dimension (ANSI)">
<path stroke-width=".72" stroke-linecap="round" stroke-linejoin="round" fill="none" stroke="#404041" d="M409.23 123.19L409.23 116.17"/>
<path transform="matrix(1,0,0,-1,-72.99,795.67)" d="M483.66 672.48V672.48L482.22 679.5Z"/>
<path stroke-width=".72" stroke-linecap="round" stroke-linejoin="round" fill="none" stroke="#404041" d="M410.67 123.19L410.67 123.19L409.23 116.17Z"/>
<path transform="matrix(1,0,0,-1,-72.99,795.67)" d="M483.66 672.48 482.22 679.5 480.78 672.48Z"/>
<path stroke-width=".72" stroke-linecap="round" stroke-linejoin="round" fill="none" stroke="#404041" d="M410.67 123.19L409.23 116.17L407.79 123.19ZM410.67 123.19L409.23 116.17L407.79 123.19L410.67 123.19M409.23 151.63L409.23 158.65"/>
<path transform="matrix(1,0,0,-1,-72.99,795.67)" d="M480.78 644.04V644.04L482.22 637.02Z"/>
<path stroke-width=".72" stroke-linecap="round" stroke-linejoin="round" fill="none" stroke="#404041" d="M407.79 151.63L407.79 151.63L409.23 158.65Z"/>
<path transform="matrix(1,0,0,-1,-72.99,795.67)" d="M480.78 644.04 482.22 637.02 483.66 644.04Z"/>
<path stroke-width=".72" stroke-linecap="round" stroke-linejoin="round" fill="none" stroke="#404041" d="M407.79 151.63L409.23 158.65L410.67 151.63ZM407.79 151.63L409.23 158.65L410.67 151.63L407.79 151.63M409.23 123.19L409.23 151.63M371.61 158.65L414.81 158.65M337.05 116.17L414.81 116.17M372.15 130.39L372.15 137.41"/>
<path transform="matrix(1,0,0,-1,-72.99,795.67)" d="M443.7 665.28V665.28L445.14 658.26Z"/>
<path stroke-width=".72" stroke-linecap="round" stroke-linejoin="round" fill="none" stroke="#404041" d="M370.71 130.39L370.71 130.39L372.15 137.41Z"/>
<path transform="matrix(1,0,0,-1,-72.99,795.67)" d="M443.7 665.28 445.14 658.26 446.58 665.28Z"/>
<path stroke-width=".72" stroke-linecap="round" stroke-linejoin="round" fill="none" stroke="#404041" d="M370.71 130.39L372.15 137.41L373.59 130.39ZM370.71 130.39L372.15 137.41L373.59 130.39L370.71 130.39M372.15 123.19L372.15 116.17"/>
<path transform="matrix(1,0,0,-1,-72.99,795.67)" d="M446.58 672.48V672.48L445.14 679.5Z"/>
<path stroke-width=".72" stroke-linecap="round" stroke-linejoin="round" fill="none" stroke="#404041" d="M373.59 123.19L373.59 123.19L372.15 116.17Z"/>
<path transform="matrix(1,0,0,-1,-72.99,795.67)" d="M446.58 672.48 445.14 679.5 443.7 672.48Z"/>
<path stroke-width=".72" stroke-linecap="round" stroke-linejoin="round" fill="none" stroke="#404041" d="M373.59 123.19L372.15 116.17L370.71 123.19ZM373.59 123.19L372.15 116.17L370.71 123.19L373.59 123.19M372.15 130.39L372.15 123.19M332.55 116.17L377.91 116.17M289.17 137.41L377.91 137.41M372.15 75.31L372.15 116.17"/>
</g>
<g inkscape:groupmode="layer" inkscape:label="Symbol (ANSI)">
<path stroke-width=".72" stroke-linecap="round" stroke-linejoin="round" fill="none" stroke="#404041" d="M260.73 125.35L264.87 131.11"/>
<path transform="matrix(1,0,0,-1,-72.99,795.67)" d="M332.64 669.42V669.42L337.86 664.56Z"/>
<path stroke-width=".72" stroke-linecap="round" stroke-linejoin="round" fill="none" stroke="#404041" d="M259.65 126.25L259.65 126.25L264.87 131.11Z"/>
<path transform="matrix(1,0,0,-1,-72.99,795.67)" d="M332.64 669.42 337.86 664.56 334.8 671.04Z"/>
<path stroke-width=".72" stroke-linecap="round" stroke-linejoin="round" fill="none" stroke="#404041" d="M259.65 126.25L264.87 131.11L261.81 124.63ZM259.65 126.25L264.87 131.11L261.81 124.63L259.65 126.25M260.73 125.35L230.67 84.13L223.47 84.13"/>
</g>
</g>
<g clip-path="url(#clip_8)">
<g inkscape:groupmode="layer" inkscape:label="Dimension (ANSI)">
<path stroke-width=".72" stroke-linecap="round" stroke-linejoin="round" fill="none" stroke="#404041" d="M103.05 572.11L95.85 572.11"/>
<path transform="matrix(1,0,0,-1,-72.99,795.67)" d="M176.04 225V225L168.84 223.56Z"/>
<path stroke-width=".72" stroke-linecap="round" stroke-linejoin="round" fill="none" stroke="#404041" d="M103.05 570.67L103.05 570.67L95.85 572.11Z"/>
<path transform="matrix(1,0,0,-1,-72.99,795.67)" d="M176.04 225 168.84 223.56 176.04 222.12Z"/>
<path stroke-width=".72" stroke-linecap="round" stroke-linejoin="round" fill="none" stroke="#404041" d="M103.05 570.67L95.85 572.11L103.05 573.55ZM103.05 570.67L95.85 572.11L103.05 573.55L103.05 570.67M1017.09 572.11L1024.29 572.11"/>
<path transform="matrix(1,0,0,-1,-72.99,795.67)" d="M1090.08 222.12V222.12L1097.28 223.56Z"/>
<path stroke-width=".72" stroke-linecap="round" stroke-linejoin="round" fill="none" stroke="#404041" d="M1017.09 573.55L1017.09 573.55L1024.29 572.11Z"/>
<path transform="matrix(1,0,0,-1,-72.99,795.67)" d="M1090.08 222.12 1097.28 223.56 1090.08 225Z"/>
<path stroke-width=".72" stroke-linecap="round" stroke-linejoin="round" fill="none" stroke="#404041" d="M1017.09 573.55L1024.29 572.11L1017.09 570.67ZM1017.09 573.55L1024.29 572.11L1017.09 570.67L1017.09 573.55M103.05 572.11L1017.09 572.11M95.85 338.65L95.85 577.69M1024.29 338.65L1024.29 577.69"/>
</g>
<g inkscape:groupmode="layer" inkscape:label="Centerline (ANSI)">
<path stroke-width=".72" stroke-linecap="round" stroke-linejoin="round" fill="none" stroke="#404041" d="M432.63 335.77L436.05 335.77M444.51 335.77L455.85 335.77M464.31 335.77L468.27 335.77M87.39 335.77L121.41 335.77M129.87 335.77L141.21 335.77M149.67 335.77L183.69 335.77M192.15 335.77L203.49 335.77M211.95 335.77L245.79 335.77M254.43 335.77L265.59 335.77M274.23 335.77L308.07 335.77M316.53 335.77L327.87 335.77M336.33 335.77L370.35 335.77M378.81 335.77L390.15 335.77M398.61 335.77L432.63 335.77M467.91 335.77L499.23 335.77M507.69 335.77L519.03 335.77M527.49 335.77L558.81 335.77M567.27 335.77L578.61 335.77M587.07 335.77L618.21 335.77M626.85 335.77L638.01 335.77M646.65 335.77L677.79 335.77M686.25 335.77L697.59 335.77M706.05 335.77L737.37 335.77M745.83 335.77L757.17 335.77M765.63 335.77L796.95 335.77M805.41 335.77L816.75 335.77M825.21 335.77L856.53 335.77M864.99 335.77L876.33 335.77M884.79 335.77L915.93 335.77M924.57 335.77L935.73 335.77M944.37 335.77L975.51 335.77M983.97 335.77L995.31 335.77M1003.77 335.77L1035.09 335.77M822.33 116.17L822.33 123.19M822.33 131.83L822.33 142.99M822.33 151.63L822.33 159.01M822.33 107.17L822.33 116.17M822.33 158.65L822.33 167.65"/>
</g>
<g inkscape:groupmode="layer" inkscape:label="Center Mark (ANSI)">
<path stroke-width=".72" stroke-linecap="round" stroke-linejoin="round" fill="none" stroke="#404041" d="M900.27 176.47L909.27 176.47M917.73 176.47L922.41 176.47M900.27 176.47L891.27 176.47M882.81 176.47L877.95 176.47M900.27 176.47L900.27 167.47M900.27 158.83L900.27 154.15M900.27 176.47L900.27 185.47M900.27 193.93L900.27 198.61"/>
</g>
<g inkscape:groupmode="layer" inkscape:label="Symbol (ANSI)">
<path stroke-width=".72" stroke-linecap="round" stroke-linejoin="round" fill="none" stroke="#404041" d="M839.43 109.69L836.73 116.17"/>
<path transform="matrix(1,0,0,-1,-72.99,795.67)" d="M911.16 686.52V686.52L909.72 679.5Z"/>
<path stroke-width=".72" stroke-linecap="round" stroke-linejoin="round" fill="none" stroke="#404041" d="M838.17 109.15L838.17 109.15L836.73 116.17Z"/>
<path transform="matrix(1,0,0,-1,-72.99,795.67)" d="M911.16 686.52 909.72 679.5 913.68 685.44Z"/>
<path stroke-width=".72" stroke-linecap="round" stroke-linejoin="round" fill="none" stroke="#404041" d="M838.17 109.15L836.73 116.17L840.69 110.23ZM838.17 109.15L836.73 116.17L840.69 110.23L838.17 109.15M839.43 109.69L876.33 23.65L883.35 23.65M298.89 109.69L295.83 116.17"/>
<path transform="matrix(1,0,0,-1,-72.99,795.67)" d="M370.62 686.52V686.52L368.82 679.5Z"/>
<path stroke-width=".72" stroke-linecap="round" stroke-linejoin="round" fill="none" stroke="#404041" d="M297.63 109.15L297.63 109.15L295.83 116.17Z"/>
<path transform="matrix(1,0,0,-1,-72.99,795.67)" d="M370.62 686.52 368.82 679.5 373.14 685.26Z"/>
<path stroke-width=".72" stroke-linecap="round" stroke-linejoin="round" fill="none" stroke="#404041" d="M297.63 109.15L295.83 116.17L300.15 110.41ZM297.63 109.15L295.83 116.17L300.15 110.41L297.63 109.15M298.89 109.69L344.25 16.27L351.45 16.27"/>
</g>
</g>
<use data-text="2" xlink:href="#font_9_1086" transform="matrix(0,-17.49,-17.49,-0,23.42,380.16)"/>
<use data-text="1" xlink:href="#font_9_1085" transform="matrix(0,-17.49,-17.49,-0,23.42,370.12)"/>
<use data-text="3" xlink:href="#font_9_1087" transform="matrix(0,-17.49,-17.49,-0,23.42,363.65)"/>
<use data-text="5" xlink:href="#font_9_1089" transform="matrix(0,-17.49,-17.49,-0,23.42,353.64)"/>
<use data-text="P" xlink:href="#font_9_246" transform="matrix(0,-17.49,-17.49,-0,45.56,455.29)"/>
<use data-text="U" xlink:href="#font_9_292" transform="matrix(0,-17.49,-17.49,-0,45.56,442.66)"/>
<use data-text="M" xlink:href="#font_9_183" transform="matrix(0,-17.49,-17.49,-0,45.56,428.82)"/>
<use data-text="P" xlink:href="#font_9_246" transform="matrix(0,-17.49,-17.49,-0,45.56,412.11)"/>
<use data-text="E" xlink:href="#font_9_72" transform="matrix(0,-17.49,-17.49,-0,45.56,399.48)"/>
<use data-text="D" xlink:href="#font_9_56" transform="matrix(0,-17.49,-17.49,-0,45.56,387.76)"/>
<use data-text=" " xlink:href="#font_9_1154" transform="matrix(0,-17.49,-17.49,-0,45.56,373.30)"/>
<use data-text="O" xlink:href="#font_9_204" transform="matrix(0,-17.49,-17.49,-0,45.56,368.60)"/>
<use data-text="U" xlink:href="#font_9_292" transform="matrix(0,-17.49,-17.49,-0,45.56,353.90)"/>
<use data-text="T" xlink:href="#font_9_279" transform="matrix(0,-17.49,-17.49,-0,45.56,340.06)"/>
<use data-text="L" xlink:href="#font_9_167" transform="matrix(0,-17.49,-17.49,-0,45.56,329.79)"/>
<use data-text="E" xlink:href="#font_9_72" transform="matrix(0,-17.49,-17.49,-0,45.56,319.40)"/>
<use data-text="T" xlink:href="#font_9_279" transform="matrix(0,-17.49,-17.49,-0,45.56,307.68)"/>
<use data-text=" " xlink:href="#font_9_1154" transform="matrix(0,-17.49,-17.49,-0,45.56,297.41)"/>
<use data-text="x" xlink:href="#font_9_735" transform="matrix(0,-17.49,-17.49,-0,45.56,292.70)"/>
<use data-text=" " xlink:href="#font_9_1154" transform="matrix(0,-17.49,-17.49,-0,45.56,283.04)"/>
<use data-text="2" xlink:href="#font_9_1086" transform="matrix(0,-17.49,-17.49,-0,45.56,278.34)"/>
<use data-text="3" xlink:href="#font_9_1087" transform="matrix(0,-17.49,-17.49,-0,404.48,154.09)"/>
<use data-text="0" xlink:href="#font_9_1084" transform="matrix(0,-17.49,-17.49,-0,404.48,144.09)"/>
<use data-text="0" xlink:href="#font_9_1084" transform="matrix(0,-17.49,-17.49,-0,404.48,132.42)"/>
<use data-text="1" xlink:href="#font_9_1085" transform="matrix(0,-17.49,-17.49,-0,367.40,107.59)"/>
<use data-text="5" xlink:href="#font_9_1089" transform="matrix(0,-17.49,-17.49,-0,367.40,101.12)"/>
<use data-text="0" xlink:href="#font_9_1084" transform="matrix(0,-17.49,-17.49,-0,367.40,91.08)"/>
<use data-text="1" xlink:href="#font_9_1085" transform="matrix(17.49,0,0,-17.49,137.48,91.45)"/>
<use data-text="1" xlink:href="#font_9_1085" transform="matrix(17.49,0,0,-17.49,143.95,91.45)"/>
<use data-text="0" xlink:href="#font_9_1084" transform="matrix(17.49,0,0,-17.49,150.43,91.45)"/>
<use data-text=" " xlink:href="#font_9_1154" transform="matrix(17.49,0,0,-17.49,162.09,91.45)"/>
<use data-text="D" xlink:href="#font_9_56" transform="matrix(17.49,0,0,-17.49,166.80,91.45)"/>
<use data-text="U" xlink:href="#font_9_292" transform="matrix(17.49,0,0,-17.49,181.25,91.45)"/>
<use data-text="C" xlink:href="#font_9_45" transform="matrix(17.49,0,0,-17.49,195.09,91.45)"/>
<use data-text="T" xlink:href="#font_9_279" transform="matrix(17.49,0,0,-17.49,207.57,91.45)"/>
<use data-text="6" xlink:href="#font_9_1090" transform="matrix(17.49,0,0,-17.49,499.27,567.37)"/>
<use data-text="5" xlink:href="#font_9_1089" transform="matrix(17.49,0,0,-17.49,510.07,567.37)"/>
<use data-text="5" xlink:href="#font_9_1089" transform="matrix(17.49,0,0,-17.49,520.11,567.37)"/>
<use data-text="0" xlink:href="#font_9_1084" transform="matrix(17.49,0,0,-17.49,530.15,567.37)"/>
<use data-text=" " xlink:href="#font_9_1154" transform="matrix(17.49,0,0,-17.49,541.82,567.37)"/>
<use data-text="L" xlink:href="#font_9_167" transform="matrix(17.49,0,0,-17.49,546.53,567.37)"/>
<use data-text="E" xlink:href="#font_9_72" transform="matrix(17.49,0,0,-17.49,556.92,567.37)"/>
<use data-text="N" xlink:href="#font_9_189" transform="matrix(17.49,0,0,-17.49,568.64,567.37)"/>
<use data-text="G" xlink:href="#font_9_110" transform="matrix(17.49,0,0,-17.49,582.85,567.37)"/>
<use data-text="T" xlink:href="#font_9_279" transform="matrix(17.49,0,0,-17.49,596.36,567.37)"/>
<use data-text="H" xlink:href="#font_9_122" transform="matrix(17.49,0,0,-17.49,606.63,567.37)"/>
<use data-text="S" xlink:href="#font_9_266" transform="matrix(17.49,0,0,-17.49,885.68,30.79)"/>
<use data-text="U" xlink:href="#font_9_292" transform="matrix(17.49,0,0,-17.49,896.55,30.79)"/>
<use data-text="P" xlink:href="#font_9_246" transform="matrix(17.49,0,0,-17.49,910.39,30.79)"/>
<use data-text="P" xlink:href="#font_9_246" transform="matrix(17.49,0,0,-17.49,923.02,30.79)"/>
<use data-text="L" xlink:href="#font_9_167" transform="matrix(17.49,0,0,-17.49,935.65,30.79)"/>
<use data-text="I" xlink:href="#font_9_134" transform="matrix(17.49,0,0,-17.49,946.04,30.79)"/>
<use data-text="E" xlink:href="#font_9_72" transform="matrix(17.49,0,0,-17.49,951.47,30.79)"/>
<use data-text="D" xlink:href="#font_9_56" transform="matrix(17.49,0,0,-17.49,963.19,30.79)"/>
<use data-text=" " xlink:href="#font_9_1154" transform="matrix(17.49,0,0,-17.49,977.64,30.79)"/>
<use data-text="W" xlink:href="#font_9_331" transform="matrix(17.49,0,0,-17.49,982.35,30.79)"/>
<use data-text="I" xlink:href="#font_9_134" transform="matrix(17.49,0,0,-17.49,1002.05,30.79)"/>
<use data-text="T" xlink:href="#font_9_279" transform="matrix(17.49,0,0,-17.49,1007.47,30.79)"/>
<use data-text="H" xlink:href="#font_9_122" transform="matrix(17.49,0,0,-17.49,1017.74,30.79)"/>
<use data-text="4" xlink:href="#font_9_1088" transform="matrix(17.49,0,0,-17.49,885.68,54.19)"/>
<use data-text="0" xlink:href="#font_9_1084" transform="matrix(17.49,0,0,-17.49,897.39,54.19)"/>
<use data-text="0" xlink:href="#font_9_1084" transform="matrix(17.49,0,0,-17.49,909.06,54.19)"/>
<use data-text="0" xlink:href="#font_9_1084" transform="matrix(17.49,0,0,-17.49,920.73,54.19)"/>
<use data-text="m" xlink:href="#font_9_575" transform="matrix(17.49,0,0,-17.49,932.40,54.19)"/>
<use data-text="m" xlink:href="#font_9_575" transform="matrix(17.49,0,0,-17.49,950.89,54.19)"/>
<use data-text=" " xlink:href="#font_9_1154" transform="matrix(17.49,0,0,-17.49,969.38,54.19)"/>
<use data-text="L" xlink:href="#font_9_167" transform="matrix(17.49,0,0,-17.49,974.09,54.19)"/>
<use data-text="G" xlink:href="#font_9_110" transform="matrix(17.49,0,0,-17.49,984.48,54.19)"/>
<use data-text=" " xlink:href="#font_9_1154" transform="matrix(17.49,0,0,-17.49,997.99,54.19)"/>
<use data-text="S" xlink:href="#font_9_266" transform="matrix(17.49,0,0,-17.49,1002.69,54.19)"/>
<use data-text="H" xlink:href="#font_9_122" transform="matrix(17.49,0,0,-17.49,1013.56,54.19)"/>
<use data-text="A" xlink:href="#font_9_1" transform="matrix(17.49,0,0,-17.49,1027.77,54.19)"/>
<use data-text="F" xlink:href="#font_9_107" transform="matrix(17.49,0,0,-17.49,1040.57,54.19)"/>
<use data-text="T" xlink:href="#font_9_279" transform="matrix(17.49,0,0,-17.49,1051.68,54.19)"/>
<use data-text="C" xlink:href="#font_9_45" transform="matrix(17.49,0,0,-17.49,350.96,23.41)"/>
<use data-text="O" xlink:href="#font_9_204" transform="matrix(17.49,0,0,-17.49,363.44,23.41)"/>
<use data-text="V" xlink:href="#font_9_325" transform="matrix(17.49,0,0,-17.49,378.13,23.41)"/>
<use data-text="E" xlink:href="#font_9_72" transform="matrix(17.49,0,0,-17.49,390.59,23.41)"/>
<use data-text="R" xlink:href="#font_9_254" transform="matrix(17.49,0,0,-17.49,402.31,23.41)"/>
<use data-text=" " xlink:href="#font_9_1154" transform="matrix(17.49,0,0,-17.49,415.03,23.41)"/>
<use data-text="B" xlink:href="#font_9_37" transform="matrix(17.49,0,0,-17.49,419.74,23.41)"/>
<use data-text="Y" xlink:href="#font_9_342" transform="matrix(17.49,0,0,-17.49,432.98,23.41)"/>
<use data-text=" " xlink:href="#font_9_1154" transform="matrix(17.49,0,0,-17.49,444.30,23.41)"/>
<use data-text="O" xlink:href="#font_9_204" transform="matrix(17.49,0,0,-17.49,449.01,23.41)"/>
<use data-text="T" xlink:href="#font_9_279" transform="matrix(17.49,0,0,-17.49,463.71,23.41)"/>
<use data-text="H" xlink:href="#font_9_122" transform="matrix(17.49,0,0,-17.49,473.98,23.41)"/>
<use data-text="E" xlink:href="#font_9_72" transform="matrix(17.49,0,0,-17.49,488.18,23.41)"/>
<use data-text="R" xlink:href="#font_9_254" transform="matrix(17.49,0,0,-17.49,499.90,23.41)"/>
<use data-text="S" xlink:href="#font_9_266" transform="matrix(17.49,0,0,-17.49,512.62,23.41)"/>
</g>
</g>
</svg>
